<svg width="375" height="468" viewBox="0 0 375 468" fill="none" xmlns="http://www.w3.org/2000/svg">
<g clip-path="url(#clip0_2135_378)">
<mask id="path-3-inside-1_2135_378" fill="white">
<path d="M0 120H93.75V291H0V120Z"/>
</mask>
<path d="M0 120V119.5H-0.5V120H0ZM-0.5 120V123.886H0.5V120H-0.5ZM-0.5 131.659V139.432H0.5V131.659H-0.5ZM-0.5 147.205V154.977H0.5V147.205H-0.5ZM-0.5 162.75V170.523H0.5V162.75H-0.5ZM-0.5 178.295V186.068H0.5V178.295H-0.5ZM-0.5 193.841V201.614H0.5V193.841H-0.5ZM-0.5 209.386V217.159H0.5V209.386H-0.5ZM-0.5 224.932V232.705H0.5V224.932H-0.5ZM-0.5 240.477V248.25H0.5V240.477H-0.5ZM-0.5 256.023V263.795H0.5V256.023H-0.5ZM-0.5 271.568V279.341H0.5V271.568H-0.5ZM-0.5 287.114V291H0.5V287.114H-0.5ZM93.75 119.5H89.8438V120.5H93.75V119.5ZM82.0312 119.5H74.2188V120.5H82.0312V119.5ZM66.4062 119.5H58.5938V120.5H66.4062V119.5ZM50.7812 119.5H42.9688V120.5H50.7812V119.5ZM35.1562 119.5H27.3438V120.5H35.1562V119.5ZM19.5312 119.5H11.7188V120.5H19.5312V119.5ZM3.90625 119.5H0V120.5H3.90625V119.5ZM0 120V119H-1V120H0ZM-1 120V123.886H1V120H-1ZM-1 131.659V139.432H1V131.659H-1ZM-1 147.205V154.977H1V147.205H-1ZM-1 162.75V170.523H1V162.75H-1ZM-1 178.295V186.068H1V178.295H-1ZM-1 193.841V201.614H1V193.841H-1ZM-1 209.386V217.159H1V209.386H-1ZM-1 224.932V232.705H1V224.932H-1ZM-1 240.477V248.25H1V240.477H-1ZM-1 256.023V263.795H1V256.023H-1ZM-1 271.568V279.341H1V271.568H-1ZM-1 287.114V291H1V287.114H-1ZM93.75 119H89.8438V121H93.75V119ZM82.0312 119H74.2188V121H82.0312V119ZM66.4062 119H58.5938V121H66.4062V119ZM50.7812 119H42.9688V121H50.7812V119ZM35.1562 119H27.3438V121H35.1562V119ZM19.5312 119H11.7188V121H19.5312V119ZM3.90625 119H0V121H3.90625V119Z" fill="#262626" mask="url(#path-3-inside-1_2135_378)"/>
<mask id="path-5-inside-2_2135_378" fill="white">
<path d="M93.75 120H187.5V291H93.75V120Z"/>
</mask>
<path d="M93.75 120V119.5H93.25V120H93.75ZM93.25 120V123.886H94.25V120H93.25ZM93.25 131.659V139.432H94.25V131.659H93.25ZM93.25 147.205V154.977H94.25V147.205H93.25ZM93.25 162.75V170.523H94.25V162.75H93.25ZM93.25 178.295V186.068H94.25V178.295H93.25ZM93.25 193.841V201.614H94.25V193.841H93.25ZM93.25 209.386V217.159H94.25V209.386H93.25ZM93.25 224.932V232.705H94.25V224.932H93.25ZM93.25 240.477V248.25H94.25V240.477H93.25ZM93.25 256.023V263.795H94.25V256.023H93.25ZM93.25 271.568V279.341H94.25V271.568H93.25ZM93.25 287.114V291H94.25V287.114H93.25ZM187.5 119.5H183.594V120.5H187.5V119.5ZM175.781 119.5H167.969V120.5H175.781V119.5ZM160.156 119.5H152.344V120.5H160.156V119.5ZM144.531 119.5H136.719V120.5H144.531V119.5ZM128.906 119.5H121.094V120.5H128.906V119.5ZM113.281 119.5H105.469V120.5H113.281V119.5ZM97.6563 119.5H93.75V120.5H97.6563V119.5ZM93.75 120V119H92.75V120H93.75ZM92.75 120V123.886H94.75V120H92.75ZM92.75 131.659V139.432H94.75V131.659H92.75ZM92.75 147.205V154.977H94.75V147.205H92.75ZM92.75 162.75V170.523H94.75V162.75H92.75ZM92.75 178.295V186.068H94.75V178.295H92.75ZM92.75 193.841V201.614H94.75V193.841H92.75ZM92.75 209.386V217.159H94.75V209.386H92.75ZM92.75 224.932V232.705H94.75V224.932H92.75ZM92.75 240.477V248.25H94.75V240.477H92.75ZM92.75 256.023V263.795H94.75V256.023H92.75ZM92.75 271.568V279.341H94.75V271.568H92.75ZM92.75 287.114V291H94.75V287.114H92.75ZM187.5 119H183.594V121H187.5V119ZM175.781 119H167.969V121H175.781V119ZM160.156 119H152.344V121H160.156V119ZM144.531 119H136.719V121H144.531V119ZM128.906 119H121.094V121H128.906V119ZM113.281 119H105.469V121H113.281V119ZM97.6563 119H93.75V121H97.6563V119Z" fill="#262626" mask="url(#path-5-inside-2_2135_378)"/>
<mask id="path-7-inside-3_2135_378" fill="white">
<path d="M187.5 120H281.25V291H187.5V120Z"/>
</mask>
<path d="M187.5 120V119.5H187V120H187.5ZM187 120V123.886H188V120H187ZM187 131.659V139.432H188V131.659H187ZM187 147.205V154.977H188V147.205H187ZM187 162.75V170.523H188V162.75H187ZM187 178.295V186.068H188V178.295H187ZM187 193.841V201.614H188V193.841H187ZM187 209.386V217.159H188V209.386H187ZM187 224.932V232.705H188V224.932H187ZM187 240.477V248.25H188V240.477H187ZM187 256.023V263.795H188V256.023H187ZM187 271.568V279.341H188V271.568H187ZM187 287.114V291H188V287.114H187ZM281.25 119.5H277.344V120.5H281.25V119.5ZM269.531 119.5H261.719V120.5H269.531V119.5ZM253.906 119.5H246.094V120.5H253.906V119.5ZM238.281 119.5H230.469V120.5H238.281V119.5ZM222.656 119.5H214.844V120.5H222.656V119.5ZM207.031 119.5H199.219V120.5H207.031V119.5ZM191.406 119.5H187.5V120.5H191.406V119.5ZM187.5 120V119H186.5V120H187.5ZM186.5 120V123.886H188.5V120H186.5ZM186.5 131.659V139.432H188.5V131.659H186.5ZM186.5 147.205V154.977H188.5V147.205H186.5ZM186.5 162.75V170.523H188.5V162.75H186.5ZM186.5 178.295V186.068H188.5V178.295H186.5ZM186.5 193.841V201.614H188.5V193.841H186.5ZM186.5 209.386V217.159H188.5V209.386H186.5ZM186.5 224.932V232.705H188.5V224.932H186.5ZM186.5 240.477V248.25H188.5V240.477H186.5ZM186.5 256.023V263.795H188.5V256.023H186.5ZM186.5 271.568V279.341H188.5V271.568H186.5ZM186.5 287.114V291H188.5V287.114H186.5ZM281.25 119H277.344V121H281.25V119ZM269.531 119H261.719V121H269.531V119ZM253.906 119H246.094V121H253.906V119ZM238.281 119H230.469V121H238.281V119ZM222.656 119H214.844V121H222.656V119ZM207.031 119H199.219V121H207.031V119ZM191.406 119H187.5V121H191.406V119Z" fill="#262626" mask="url(#path-7-inside-3_2135_378)"/>
<mask id="path-9-inside-4_2135_378" fill="white">
<path d="M281.25 120H375V291H281.25V120Z"/>
</mask>
<path d="M281.25 120V119.5H280.75V120H281.25ZM280.75 120V123.886H281.75V120H280.75ZM280.75 131.659V139.432H281.75V131.659H280.75ZM280.75 147.205V154.977H281.75V147.205H280.75ZM280.75 162.75V170.523H281.75V162.75H280.75ZM280.75 178.295V186.068H281.75V178.295H280.75ZM280.75 193.841V201.614H281.75V193.841H280.75ZM280.75 209.386V217.159H281.75V209.386H280.75ZM280.75 224.932V232.705H281.75V224.932H280.75ZM280.75 240.477V248.25H281.75V240.477H280.75ZM280.75 256.023V263.795H281.75V256.023H280.75ZM280.75 271.568V279.341H281.75V271.568H280.75ZM280.75 287.114V291H281.75V287.114H280.75ZM375 119.5H371.094V120.5H375V119.5ZM363.281 119.5H355.469V120.5H363.281V119.5ZM347.656 119.5H339.844V120.5H347.656V119.5ZM332.031 119.5H324.219V120.5H332.031V119.5ZM316.406 119.5H308.594V120.5H316.406V119.5ZM300.781 119.5H292.969V120.5H300.781V119.5ZM285.156 119.5H281.25V120.5H285.156V119.5ZM281.25 120V119H280.25V120H281.25ZM280.25 120V123.886H282.25V120H280.25ZM280.25 131.659V139.432H282.25V131.659H280.25ZM280.25 147.205V154.977H282.25V147.205H280.25ZM280.25 162.75V170.523H282.25V162.75H280.25ZM280.25 178.295V186.068H282.25V178.295H280.25ZM280.25 193.841V201.614H282.25V193.841H280.25ZM280.25 209.386V217.159H282.25V209.386H280.25ZM280.25 224.932V232.705H282.25V224.932H280.25ZM280.25 240.477V248.25H282.25V240.477H280.25ZM280.25 256.023V263.795H282.25V256.023H280.25ZM280.25 271.568V279.341H282.25V271.568H280.25ZM280.25 287.114V291H282.25V287.114H280.25ZM375 119H371.094V121H375V119ZM363.281 119H355.469V121H363.281V119ZM347.656 119H339.844V121H347.656V119ZM332.031 119H324.219V121H332.031V119ZM316.406 119H308.594V121H316.406V119ZM300.781 119H292.969V121H300.781V119ZM285.156 119H281.25V121H285.156V119Z" fill="#262626" mask="url(#path-9-inside-4_2135_378)"/>
<mask id="path-11-inside-5_2135_378" fill="white">
<path d="M0 240H93.75V411H0V240Z"/>
</mask>
<path d="M0 240V239.5H-0.5V240H0ZM-0.5 240V243.886H0.5V240H-0.5ZM-0.5 251.659V259.432H0.5V251.659H-0.5ZM-0.5 267.205V274.977H0.5V267.205H-0.5ZM-0.5 282.75V290.523H0.5V282.75H-0.5ZM-0.5 298.295V306.068H0.5V298.295H-0.5ZM-0.5 313.841V321.614H0.5V313.841H-0.5ZM-0.5 329.386V337.159H0.5V329.386H-0.5ZM-0.5 344.932V352.705H0.5V344.932H-0.5ZM-0.5 360.477V368.25H0.5V360.477H-0.5ZM-0.5 376.023V383.795H0.5V376.023H-0.5ZM-0.5 391.568V399.341H0.5V391.568H-0.5ZM-0.5 407.114V411H0.5V407.114H-0.5ZM93.75 239.5H89.8438V240.5H93.75V239.5ZM82.0312 239.5H74.2188V240.5H82.0312V239.5ZM66.4062 239.5H58.5938V240.5H66.4062V239.5ZM50.7812 239.5H42.9688V240.5H50.7812V239.5ZM35.1562 239.5H27.3438V240.5H35.1562V239.5ZM19.5312 239.5H11.7188V240.5H19.5312V239.5ZM3.90625 239.5H0V240.5H3.90625V239.5ZM0 240V239H-1V240H0ZM-1 240V243.886H1V240H-1ZM-1 251.659V259.432H1V251.659H-1ZM-1 267.205V274.977H1V267.205H-1ZM-1 282.75V290.523H1V282.75H-1ZM-1 298.295V306.068H1V298.295H-1ZM-1 313.841V321.614H1V313.841H-1ZM-1 329.386V337.159H1V329.386H-1ZM-1 344.932V352.705H1V344.932H-1ZM-1 360.477V368.25H1V360.477H-1ZM-1 376.023V383.795H1V376.023H-1ZM-1 391.568V399.341H1V391.568H-1ZM-1 407.114V411H1V407.114H-1ZM93.75 239H89.8438V241H93.75V239ZM82.0312 239H74.2188V241H82.0312V239ZM66.4062 239H58.5938V241H66.4062V239ZM50.7812 239H42.9688V241H50.7812V239ZM35.1562 239H27.3438V241H35.1562V239ZM19.5312 239H11.7188V241H19.5312V239ZM3.90625 239H0V241H3.90625V239Z" fill="#262626" mask="url(#path-11-inside-5_2135_378)"/>
<mask id="path-13-inside-6_2135_378" fill="white">
<path d="M93.75 240H187.5V411H93.75V240Z"/>
</mask>
<path d="M93.75 240V239.5H93.25V240H93.75ZM93.25 240V243.886H94.25V240H93.25ZM93.25 251.659V259.432H94.25V251.659H93.25ZM93.25 267.205V274.977H94.25V267.205H93.25ZM93.25 282.75V290.523H94.25V282.75H93.25ZM93.25 298.295V306.068H94.25V298.295H93.25ZM93.25 313.841V321.614H94.25V313.841H93.25ZM93.25 329.386V337.159H94.25V329.386H93.25ZM93.25 344.932V352.705H94.25V344.932H93.25ZM93.25 360.477V368.25H94.25V360.477H93.25ZM93.25 376.023V383.795H94.25V376.023H93.25ZM93.25 391.568V399.341H94.25V391.568H93.25ZM93.25 407.114V411H94.25V407.114H93.25ZM187.5 239.5H183.594V240.5H187.5V239.5ZM175.781 239.5H167.969V240.5H175.781V239.5ZM160.156 239.5H152.344V240.5H160.156V239.5ZM144.531 239.5H136.719V240.5H144.531V239.5ZM128.906 239.5H121.094V240.5H128.906V239.5ZM113.281 239.5H105.469V240.5H113.281V239.5ZM97.6563 239.5H93.75V240.5H97.6563V239.5ZM93.75 240V239H92.75V240H93.75ZM92.75 240V243.886H94.75V240H92.75ZM92.75 251.659V259.432H94.75V251.659H92.75ZM92.75 267.205V274.977H94.75V267.205H92.75ZM92.75 282.75V290.523H94.75V282.75H92.75ZM92.75 298.295V306.068H94.75V298.295H92.75ZM92.75 313.841V321.614H94.75V313.841H92.75ZM92.75 329.386V337.159H94.75V329.386H92.75ZM92.75 344.932V352.705H94.75V344.932H92.75ZM92.75 360.477V368.25H94.75V360.477H92.75ZM92.75 376.023V383.795H94.75V376.023H92.75ZM92.75 391.568V399.341H94.75V391.568H92.75ZM92.75 407.114V411H94.75V407.114H92.75ZM187.5 239H183.594V241H187.5V239ZM175.781 239H167.969V241H175.781V239ZM160.156 239H152.344V241H160.156V239ZM144.531 239H136.719V241H144.531V239ZM128.906 239H121.094V241H128.906V239ZM113.281 239H105.469V241H113.281V239ZM97.6563 239H93.75V241H97.6563V239Z" fill="#262626" mask="url(#path-13-inside-6_2135_378)"/>
<mask id="path-15-inside-7_2135_378" fill="white">
<path d="M187.5 240H281.25V411H187.5V240Z"/>
</mask>
<path d="M187.5 240V239.5H187V240H187.5ZM187 240V243.886H188V240H187ZM187 251.659V259.432H188V251.659H187ZM187 267.205V274.977H188V267.205H187ZM187 282.75V290.523H188V282.75H187ZM187 298.295V306.068H188V298.295H187ZM187 313.841V321.614H188V313.841H187ZM187 329.386V337.159H188V329.386H187ZM187 344.932V352.705H188V344.932H187ZM187 360.477V368.25H188V360.477H187ZM187 376.023V383.795H188V376.023H187ZM187 391.568V399.341H188V391.568H187ZM187 407.114V411H188V407.114H187ZM281.25 239.5H277.344V240.5H281.25V239.5ZM269.531 239.5H261.719V240.5H269.531V239.5ZM253.906 239.5H246.094V240.5H253.906V239.5ZM238.281 239.5H230.469V240.5H238.281V239.5ZM222.656 239.5H214.844V240.5H222.656V239.5ZM207.031 239.5H199.219V240.5H207.031V239.5ZM191.406 239.5H187.5V240.5H191.406V239.5ZM187.5 240V239H186.5V240H187.5ZM186.5 240V243.886H188.5V240H186.5ZM186.5 251.659V259.432H188.5V251.659H186.5ZM186.5 267.205V274.977H188.5V267.205H186.5ZM186.5 282.75V290.523H188.5V282.75H186.5ZM186.5 298.295V306.068H188.5V298.295H186.5ZM186.5 313.841V321.614H188.5V313.841H186.5ZM186.5 329.386V337.159H188.5V329.386H186.5ZM186.5 344.932V352.705H188.5V344.932H186.5ZM186.5 360.477V368.25H188.5V360.477H186.5ZM186.5 376.023V383.795H188.5V376.023H186.5ZM186.5 391.568V399.341H188.5V391.568H186.5ZM186.5 407.114V411H188.5V407.114H186.5ZM281.25 239H277.344V241H281.25V239ZM269.531 239H261.719V241H269.531V239ZM253.906 239H246.094V241H253.906V239ZM238.281 239H230.469V241H238.281V239ZM222.656 239H214.844V241H222.656V239ZM207.031 239H199.219V241H207.031V239ZM191.406 239H187.5V241H191.406V239Z" fill="#262626" mask="url(#path-15-inside-7_2135_378)"/>
<mask id="path-17-inside-8_2135_378" fill="white">
<path d="M281.25 240H375V411H281.25V240Z"/>
</mask>
<path d="M281.25 240V239.5H280.75V240H281.25ZM280.75 240V243.886H281.75V240H280.75ZM280.75 251.659V259.432H281.75V251.659H280.75ZM280.75 267.205V274.977H281.75V267.205H280.75ZM280.75 282.75V290.523H281.75V282.75H280.75ZM280.75 298.295V306.068H281.75V298.295H280.75ZM280.75 313.841V321.614H281.75V313.841H280.75ZM280.75 329.386V337.159H281.75V329.386H280.75ZM280.75 344.932V352.705H281.75V344.932H280.75ZM280.75 360.477V368.25H281.75V360.477H280.75ZM280.75 376.023V383.795H281.75V376.023H280.75ZM280.75 391.568V399.341H281.75V391.568H280.75ZM280.75 407.114V411H281.75V407.114H280.75ZM375 239.5H371.094V240.5H375V239.5ZM363.281 239.5H355.469V240.5H363.281V239.5ZM347.656 239.5H339.844V240.5H347.656V239.5ZM332.031 239.5H324.219V240.5H332.031V239.5ZM316.406 239.5H308.594V240.5H316.406V239.5ZM300.781 239.5H292.969V240.5H300.781V239.5ZM285.156 239.5H281.25V240.5H285.156V239.5ZM281.25 240V239H280.25V240H281.25ZM280.25 240V243.886H282.25V240H280.25ZM280.25 251.659V259.432H282.25V251.659H280.25ZM280.25 267.205V274.977H282.25V267.205H280.25ZM280.25 282.75V290.523H282.25V282.75H280.25ZM280.25 298.295V306.068H282.25V298.295H280.25ZM280.25 313.841V321.614H282.25V313.841H280.25ZM280.25 329.386V337.159H282.25V329.386H280.25ZM280.25 344.932V352.705H282.25V344.932H280.25ZM280.25 360.477V368.25H282.25V360.477H280.25ZM280.25 376.023V383.795H282.25V376.023H280.25ZM280.25 391.568V399.341H282.25V391.568H280.25ZM280.25 407.114V411H282.25V407.114H280.25ZM375 239H371.094V241H375V239ZM363.281 239H355.469V241H363.281V239ZM347.656 239H339.844V241H347.656V239ZM332.031 239H324.219V241H332.031V239ZM316.406 239H308.594V241H316.406V239ZM300.781 239H292.969V241H300.781V239ZM285.156 239H281.25V241H285.156V239Z" fill="#262626" mask="url(#path-17-inside-8_2135_378)"/>
<mask id="path-19-inside-9_2135_378" fill="white">
<path d="M0 360H93.75V531H0V360Z"/>
</mask>
<path d="M0 360V359.5H-0.5V360H0ZM-0.5 360V363.886H0.5V360H-0.5ZM-0.5 371.659V379.432H0.5V371.659H-0.5ZM-0.5 387.205V394.977H0.5V387.205H-0.5ZM-0.5 402.75V410.523H0.5V402.75H-0.5ZM-0.5 418.295V426.068H0.5V418.295H-0.5ZM-0.5 433.841V441.614H0.5V433.841H-0.5ZM-0.5 449.386V457.159H0.5V449.386H-0.5ZM-0.5 464.932V472.705H0.5V464.932H-0.5ZM-0.5 480.477V488.25H0.5V480.477H-0.5ZM-0.5 496.023V503.795H0.5V496.023H-0.5ZM-0.5 511.568V519.341H0.5V511.568H-0.5ZM-0.5 527.114V531H0.5V527.114H-0.5ZM93.75 359.5H89.8438V360.5H93.75V359.5ZM82.0312 359.5H74.2188V360.5H82.0312V359.5ZM66.4062 359.5H58.5938V360.5H66.4062V359.5ZM50.7812 359.5H42.9688V360.5H50.7812V359.5ZM35.1562 359.5H27.3438V360.5H35.1562V359.5ZM19.5312 359.5H11.7188V360.5H19.5312V359.5ZM3.90625 359.5H0V360.5H3.90625V359.5ZM0 360V359H-1V360H0ZM-1 360V363.886H1V360H-1ZM-1 371.659V379.432H1V371.659H-1ZM-1 387.205V394.977H1V387.205H-1ZM-1 402.75V410.523H1V402.75H-1ZM-1 418.295V426.068H1V418.295H-1ZM-1 433.841V441.614H1V433.841H-1ZM-1 449.386V457.159H1V449.386H-1ZM-1 464.932V472.705H1V464.932H-1ZM-1 480.477V488.25H1V480.477H-1ZM-1 496.023V503.795H1V496.023H-1ZM-1 511.568V519.341H1V511.568H-1ZM-1 527.114V531H1V527.114H-1ZM93.75 359H89.8438V361H93.75V359ZM82.0312 359H74.2188V361H82.0312V359ZM66.4062 359H58.5938V361H66.4062V359ZM50.7812 359H42.9688V361H50.7812V359ZM35.1562 359H27.3438V361H35.1562V359ZM19.5312 359H11.7188V361H19.5312V359ZM3.90625 359H0V361H3.90625V359Z" fill="#262626" mask="url(#path-19-inside-9_2135_378)"/>
<mask id="path-21-inside-10_2135_378" fill="white">
<path d="M93.75 360H187.5V531H93.75V360Z"/>
</mask>
<path d="M93.75 360V359.5H93.25V360H93.75ZM93.25 360V363.886H94.25V360H93.25ZM93.25 371.659V379.432H94.25V371.659H93.25ZM93.25 387.205V394.977H94.25V387.205H93.25ZM93.25 402.75V410.523H94.25V402.75H93.25ZM93.25 418.295V426.068H94.25V418.295H93.25ZM93.25 433.841V441.614H94.25V433.841H93.25ZM93.25 449.386V457.159H94.25V449.386H93.25ZM93.25 464.932V472.705H94.25V464.932H93.25ZM93.25 480.477V488.25H94.25V480.477H93.25ZM93.25 496.023V503.795H94.25V496.023H93.25ZM93.25 511.568V519.341H94.25V511.568H93.25ZM93.25 527.114V531H94.25V527.114H93.25ZM187.5 359.5H183.594V360.5H187.5V359.5ZM175.781 359.5H167.969V360.5H175.781V359.5ZM160.156 359.5H152.344V360.5H160.156V359.5ZM144.531 359.5H136.719V360.5H144.531V359.5ZM128.906 359.5H121.094V360.5H128.906V359.5ZM113.281 359.5H105.469V360.5H113.281V359.5ZM97.6563 359.5H93.75V360.5H97.6563V359.5ZM93.75 360V359H92.75V360H93.75ZM92.75 360V363.886H94.75V360H92.75ZM92.75 371.659V379.432H94.75V371.659H92.75ZM92.75 387.205V394.977H94.75V387.205H92.75ZM92.75 402.75V410.523H94.75V402.75H92.75ZM92.75 418.295V426.068H94.75V418.295H92.75ZM92.75 433.841V441.614H94.75V433.841H92.75ZM92.75 449.386V457.159H94.75V449.386H92.75ZM92.75 464.932V472.705H94.75V464.932H92.75ZM92.75 480.477V488.25H94.75V480.477H92.75ZM92.75 496.023V503.795H94.75V496.023H92.75ZM92.75 511.568V519.341H94.75V511.568H92.75ZM92.75 527.114V531H94.75V527.114H92.75ZM187.5 359H183.594V361H187.5V359ZM175.781 359H167.969V361H175.781V359ZM160.156 359H152.344V361H160.156V359ZM144.531 359H136.719V361H144.531V359ZM128.906 359H121.094V361H128.906V359ZM113.281 359H105.469V361H113.281V359ZM97.6563 359H93.75V361H97.6563V359Z" fill="#262626" mask="url(#path-21-inside-10_2135_378)"/>
<mask id="path-23-inside-11_2135_378" fill="white">
<path d="M187.5 360H281.25V531H187.5V360Z"/>
</mask>
<path d="M187.5 360V359.5H187V360H187.5ZM187 360V363.886H188V360H187ZM187 371.659V379.432H188V371.659H187ZM187 387.205V394.977H188V387.205H187ZM187 402.75V410.523H188V402.75H187ZM187 418.295V426.068H188V418.295H187ZM187 433.841V441.614H188V433.841H187ZM187 449.386V457.159H188V449.386H187ZM187 464.932V472.705H188V464.932H187ZM187 480.477V488.25H188V480.477H187ZM187 496.023V503.795H188V496.023H187ZM187 511.568V519.341H188V511.568H187ZM187 527.114V531H188V527.114H187ZM281.25 359.5H277.344V360.5H281.25V359.5ZM269.531 359.5H261.719V360.5H269.531V359.5ZM253.906 359.5H246.094V360.5H253.906V359.5ZM238.281 359.5H230.469V360.5H238.281V359.5ZM222.656 359.5H214.844V360.5H222.656V359.5ZM207.031 359.5H199.219V360.5H207.031V359.5ZM191.406 359.5H187.5V360.5H191.406V359.5ZM187.5 360V359H186.5V360H187.5ZM186.5 360V363.886H188.5V360H186.5ZM186.5 371.659V379.432H188.5V371.659H186.5ZM186.5 387.205V394.977H188.5V387.205H186.5ZM186.5 402.75V410.523H188.5V402.75H186.5ZM186.5 418.295V426.068H188.5V418.295H186.5ZM186.5 433.841V441.614H188.5V433.841H186.5ZM186.5 449.386V457.159H188.5V449.386H186.5ZM186.5 464.932V472.705H188.5V464.932H186.5ZM186.5 480.477V488.25H188.5V480.477H186.5ZM186.5 496.023V503.795H188.5V496.023H186.5ZM186.5 511.568V519.341H188.5V511.568H186.5ZM186.5 527.114V531H188.5V527.114H186.5ZM281.25 359H277.344V361H281.25V359ZM269.531 359H261.719V361H269.531V359ZM253.906 359H246.094V361H253.906V359ZM238.281 359H230.469V361H238.281V359ZM222.656 359H214.844V361H222.656V359ZM207.031 359H199.219V361H207.031V359ZM191.406 359H187.5V361H191.406V359Z" fill="#262626" mask="url(#path-23-inside-11_2135_378)"/>
<mask id="path-25-inside-12_2135_378" fill="white">
<path d="M281.25 360H375V531H281.25V360Z"/>
</mask>
<path d="M281.25 360V359.5H280.75V360H281.25ZM280.75 360V363.886H281.75V360H280.75ZM280.75 371.659V379.432H281.75V371.659H280.75ZM280.75 387.205V394.977H281.75V387.205H280.75ZM280.75 402.75V410.523H281.75V402.75H280.75ZM280.75 418.295V426.068H281.75V418.295H280.75ZM280.75 433.841V441.614H281.75V433.841H280.75ZM280.75 449.386V457.159H281.75V449.386H280.75ZM280.75 464.932V472.705H281.75V464.932H280.75ZM280.75 480.477V488.25H281.75V480.477H280.75ZM280.75 496.023V503.795H281.75V496.023H280.75ZM280.75 511.568V519.341H281.75V511.568H280.75ZM280.75 527.114V531H281.75V527.114H280.75ZM375 359.5H371.094V360.5H375V359.5ZM363.281 359.5H355.469V360.5H363.281V359.5ZM347.656 359.5H339.844V360.5H347.656V359.5ZM332.031 359.5H324.219V360.5H332.031V359.5ZM316.406 359.5H308.594V360.5H316.406V359.5ZM300.781 359.5H292.969V360.5H300.781V359.5ZM285.156 359.5H281.25V360.5H285.156V359.5ZM281.25 360V359H280.25V360H281.25ZM280.25 360V363.886H282.25V360H280.25ZM280.25 371.659V379.432H282.25V371.659H280.25ZM280.25 387.205V394.977H282.25V387.205H280.25ZM280.25 402.75V410.523H282.25V402.75H280.25ZM280.25 418.295V426.068H282.25V418.295H280.25ZM280.25 433.841V441.614H282.25V433.841H280.25ZM280.25 449.386V457.159H282.25V449.386H280.25ZM280.25 464.932V472.705H282.25V464.932H280.25ZM280.25 480.477V488.25H282.25V480.477H280.25ZM280.25 496.023V503.795H282.25V496.023H280.25ZM280.25 511.568V519.341H282.25V511.568H280.25ZM280.25 527.114V531H282.25V527.114H280.25ZM375 359H371.094V361H375V359ZM363.281 359H355.469V361H363.281V359ZM347.656 359H339.844V361H347.656V359ZM332.031 359H324.219V361H332.031V359ZM316.406 359H308.594V361H316.406V359ZM300.781 359H292.969V361H300.781V359ZM285.156 359H281.25V361H285.156V359Z" fill="#262626" mask="url(#path-25-inside-12_2135_378)"/>
<ellipse cx="180.5" cy="-41.5" rx="194.5" ry="134.5" fill="url(#paint0_radial_2135_378)" fill-opacity="0.24"/>
</g>
<rect x="0.5" y="0.5" width="374" height="467" stroke="#262626" stroke-dasharray="8 8"/>
<defs>
<radialGradient id="paint0_radial_2135_378" cx="0" cy="0" r="1" gradientUnits="userSpaceOnUse" gradientTransform="translate(180.5 -41.5) rotate(90) scale(134.5 194.5)">
<stop stop-color="#5663DC"/>
<stop offset="1" stop-color="#616DDE" stop-opacity="0"/>
</radialGradient>
<clipPath id="clip0_2135_378">
<rect width="375" height="468" fill="white"/>
</clipPath>
</defs>
</svg>
