<svg width="1440" height="1207" viewBox="0 0 1440 1207" fill="none" xmlns="http://www.w3.org/2000/svg">
<rect x="0.5" y="0.5" width="1439" height="683" stroke="#515151" stroke-dasharray="8 8"/>
<mask id="path-2-inside-1_4011_5" fill="white">
<path d="M0 0H240V171H0V0Z"/>
</mask>
<path d="M0 0V-0.5H-0.5V0H0ZM-0.5 0V3.88636H0.5V0H-0.5ZM-0.5 11.6591V19.4318H0.5V11.6591H-0.5ZM-0.5 27.2045V34.9773H0.5V27.2045H-0.5ZM-0.5 42.75V50.5227H0.5V42.75H-0.5ZM-0.5 58.2955V66.0682H0.5V58.2955H-0.5ZM-0.5 73.8409V81.6136H0.5V73.8409H-0.5ZM-0.5 89.3864V97.1591H0.5V89.3864H-0.5ZM-0.5 104.932V112.705H0.5V104.932H-0.5ZM-0.5 120.477V128.25H0.5V120.477H-0.5ZM-0.5 136.023V143.795H0.5V136.023H-0.5ZM-0.5 151.568V159.341H0.5V151.568H-0.5ZM-0.5 167.114V171H0.5V167.114H-0.5ZM240 -0.5H236V0.5H240V-0.5ZM228 -0.5H220V0.5H228V-0.5ZM212 -0.5H204V0.5H212V-0.5ZM196 -0.5H188V0.5H196V-0.5ZM180 -0.5H172V0.5H180V-0.5ZM164 -0.5H156V0.5H164V-0.5ZM148 -0.5H140V0.5H148V-0.5ZM132 -0.5H124V0.5H132V-0.5ZM116 -0.5H108V0.5H116V-0.5ZM100 -0.5H92V0.5H100V-0.5ZM84 -0.5H76V0.5H84V-0.5ZM68 -0.5H60V0.5H68V-0.5ZM52 -0.5H44V0.5H52V-0.5ZM36 -0.5H28V0.5H36V-0.5ZM20 -0.5H12V0.5H20V-0.5ZM4 -0.5H0V0.5H4V-0.5ZM0 0V-1H-1V0H0ZM-1 0V3.88636H1V0H-1ZM-1 11.6591V19.4318H1V11.6591H-1ZM-1 27.2045V34.9773H1V27.2045H-1ZM-1 42.75V50.5227H1V42.75H-1ZM-1 58.2955V66.0682H1V58.2955H-1ZM-1 73.8409V81.6136H1V73.8409H-1ZM-1 89.3864V97.1591H1V89.3864H-1ZM-1 104.932V112.705H1V104.932H-1ZM-1 120.477V128.25H1V120.477H-1ZM-1 136.023V143.795H1V136.023H-1ZM-1 151.568V159.341H1V151.568H-1ZM-1 167.114V171H1V167.114H-1ZM240 -1H236V1H240V-1ZM228 -1H220V1H228V-1ZM212 -1H204V1H212V-1ZM196 -1H188V1H196V-1ZM180 -1H172V1H180V-1ZM164 -1H156V1H164V-1ZM148 -1H140V1H148V-1ZM132 -1H124V1H132V-1ZM116 -1H108V1H116V-1ZM100 -1H92V1H100V-1ZM84 -1H76V1H84V-1ZM68 -1H60V1H68V-1ZM52 -1H44V1H52V-1ZM36 -1H28V1H36V-1ZM20 -1H12V1H20V-1ZM4 -1H0V1H4V-1Z" fill="#515151" mask="url(#path-2-inside-1_4011_5)"/>
<mask id="path-4-inside-2_4011_5" fill="white">
<path d="M240 0H480V171H240V0Z"/>
</mask>
<path d="M240 0V-0.5H239.5V0H240ZM239.5 0V3.88636H240.5V0H239.5ZM239.5 11.6591V19.4318H240.5V11.6591H239.5ZM239.5 27.2045V34.9773H240.5V27.2045H239.5ZM239.5 42.75V50.5227H240.5V42.75H239.5ZM239.5 58.2955V66.0682H240.5V58.2955H239.5ZM239.5 73.8409V81.6136H240.5V73.8409H239.5ZM239.5 89.3864V97.1591H240.5V89.3864H239.5ZM239.5 104.932V112.705H240.5V104.932H239.5ZM239.5 120.477V128.25H240.5V120.477H239.5ZM239.5 136.023V143.795H240.5V136.023H239.5ZM239.5 151.568V159.341H240.5V151.568H239.5ZM239.5 167.114V171H240.5V167.114H239.5ZM480 -0.5H476V0.5H480V-0.5ZM468 -0.5H460V0.5H468V-0.5ZM452 -0.5H444V0.5H452V-0.5ZM436 -0.5H428V0.5H436V-0.5ZM420 -0.5H412V0.5H420V-0.5ZM404 -0.5H396V0.5H404V-0.5ZM388 -0.5H380V0.5H388V-0.5ZM372 -0.5H364V0.5H372V-0.5ZM356 -0.5H348V0.5H356V-0.5ZM340 -0.5H332V0.5H340V-0.5ZM324 -0.5H316V0.5H324V-0.5ZM308 -0.5H300V0.5H308V-0.5ZM292 -0.5H284V0.5H292V-0.5ZM276 -0.5H268V0.5H276V-0.5ZM260 -0.5H252V0.5H260V-0.5ZM244 -0.5H240V0.5H244V-0.5ZM240 0V-1H239V0H240ZM239 0V3.88636H241V0H239ZM239 11.6591V19.4318H241V11.6591H239ZM239 27.2045V34.9773H241V27.2045H239ZM239 42.75V50.5227H241V42.75H239ZM239 58.2955V66.0682H241V58.2955H239ZM239 73.8409V81.6136H241V73.8409H239ZM239 89.3864V97.1591H241V89.3864H239ZM239 104.932V112.705H241V104.932H239ZM239 120.477V128.25H241V120.477H239ZM239 136.023V143.795H241V136.023H239ZM239 151.568V159.341H241V151.568H239ZM239 167.114V171H241V167.114H239ZM480 -1H476V1H480V-1ZM468 -1H460V1H468V-1ZM452 -1H444V1H452V-1ZM436 -1H428V1H436V-1ZM420 -1H412V1H420V-1ZM404 -1H396V1H404V-1ZM388 -1H380V1H388V-1ZM372 -1H364V1H372V-1ZM356 -1H348V1H356V-1ZM340 -1H332V1H340V-1ZM324 -1H316V1H324V-1ZM308 -1H300V1H308V-1ZM292 -1H284V1H292V-1ZM276 -1H268V1H276V-1ZM260 -1H252V1H260V-1ZM244 -1H240V1H244V-1Z" fill="#515151" mask="url(#path-4-inside-2_4011_5)"/>
<mask id="path-6-inside-3_4011_5" fill="white">
<path d="M480 0H720V171H480V0Z"/>
</mask>
<path d="M480 0V-0.5H479.5V0H480ZM479.5 0V3.88636H480.5V0H479.5ZM479.5 11.6591V19.4318H480.5V11.6591H479.5ZM479.5 27.2045V34.9773H480.5V27.2045H479.5ZM479.5 42.75V50.5227H480.5V42.75H479.5ZM479.5 58.2955V66.0682H480.5V58.2955H479.5ZM479.5 73.8409V81.6136H480.5V73.8409H479.5ZM479.5 89.3864V97.1591H480.5V89.3864H479.5ZM479.5 104.932V112.705H480.5V104.932H479.5ZM479.5 120.477V128.25H480.5V120.477H479.5ZM479.5 136.023V143.795H480.5V136.023H479.5ZM479.5 151.568V159.341H480.5V151.568H479.5ZM479.5 167.114V171H480.5V167.114H479.5ZM720 -0.5H716V0.5H720V-0.5ZM708 -0.5H700V0.5H708V-0.5ZM692 -0.5H684V0.5H692V-0.5ZM676 -0.5H668V0.5H676V-0.5ZM660 -0.5H652V0.5H660V-0.5ZM644 -0.5H636V0.5H644V-0.5ZM628 -0.5H620V0.5H628V-0.5ZM612 -0.5H604V0.5H612V-0.5ZM596 -0.5H588V0.5H596V-0.5ZM580 -0.5H572V0.5H580V-0.5ZM564 -0.5H556V0.5H564V-0.5ZM548 -0.5H540V0.5H548V-0.5ZM532 -0.5H524V0.5H532V-0.5ZM516 -0.5H508V0.5H516V-0.5ZM500 -0.5H492V0.5H500V-0.5ZM484 -0.5H480V0.5H484V-0.5ZM480 0V-1H479V0H480ZM479 0V3.88636H481V0H479ZM479 11.6591V19.4318H481V11.6591H479ZM479 27.2045V34.9773H481V27.2045H479ZM479 42.75V50.5227H481V42.75H479ZM479 58.2955V66.0682H481V58.2955H479ZM479 73.8409V81.6136H481V73.8409H479ZM479 89.3864V97.1591H481V89.3864H479ZM479 104.932V112.705H481V104.932H479ZM479 120.477V128.25H481V120.477H479ZM479 136.023V143.795H481V136.023H479ZM479 151.568V159.341H481V151.568H479ZM479 167.114V171H481V167.114H479ZM720 -1H716V1H720V-1ZM708 -1H700V1H708V-1ZM692 -1H684V1H692V-1ZM676 -1H668V1H676V-1ZM660 -1H652V1H660V-1ZM644 -1H636V1H644V-1ZM628 -1H620V1H628V-1ZM612 -1H604V1H612V-1ZM596 -1H588V1H596V-1ZM580 -1H572V1H580V-1ZM564 -1H556V1H564V-1ZM548 -1H540V1H548V-1ZM532 -1H524V1H532V-1ZM516 -1H508V1H516V-1ZM500 -1H492V1H500V-1ZM484 -1H480V1H484V-1Z" fill="#515151" mask="url(#path-6-inside-3_4011_5)"/>
<mask id="path-8-inside-4_4011_5" fill="white">
<path d="M720 0H960V171H720V0Z"/>
</mask>
<path d="M720 0V-0.5H719.5V0H720ZM719.5 0V3.88636H720.5V0H719.5ZM719.5 11.6591V19.4318H720.5V11.6591H719.5ZM719.5 27.2045V34.9773H720.5V27.2045H719.5ZM719.5 42.75V50.5227H720.5V42.75H719.5ZM719.5 58.2955V66.0682H720.5V58.2955H719.5ZM719.5 73.8409V81.6136H720.5V73.8409H719.5ZM719.5 89.3864V97.1591H720.5V89.3864H719.5ZM719.5 104.932V112.705H720.5V104.932H719.5ZM719.5 120.477V128.25H720.5V120.477H719.5ZM719.5 136.023V143.795H720.5V136.023H719.5ZM719.5 151.568V159.341H720.5V151.568H719.5ZM719.5 167.114V171H720.5V167.114H719.5ZM960 -0.5H956V0.5H960V-0.5ZM948 -0.5H940V0.5H948V-0.5ZM932 -0.5H924V0.5H932V-0.5ZM916 -0.5H908V0.5H916V-0.5ZM900 -0.5H892V0.5H900V-0.5ZM884 -0.5H876V0.5H884V-0.5ZM868 -0.5H860V0.5H868V-0.5ZM852 -0.5H844V0.5H852V-0.5ZM836 -0.5H828V0.5H836V-0.5ZM820 -0.5H812V0.5H820V-0.5ZM804 -0.5H796V0.5H804V-0.5ZM788 -0.5H780V0.5H788V-0.5ZM772 -0.5H764V0.5H772V-0.5ZM756 -0.5H748V0.5H756V-0.5ZM740 -0.5H732V0.5H740V-0.5ZM724 -0.5H720V0.5H724V-0.5ZM720 0V-1H719V0H720ZM719 0V3.88636H721V0H719ZM719 11.6591V19.4318H721V11.6591H719ZM719 27.2045V34.9773H721V27.2045H719ZM719 42.75V50.5227H721V42.75H719ZM719 58.2955V66.0682H721V58.2955H719ZM719 73.8409V81.6136H721V73.8409H719ZM719 89.3864V97.1591H721V89.3864H719ZM719 104.932V112.705H721V104.932H719ZM719 120.477V128.25H721V120.477H719ZM719 136.023V143.795H721V136.023H719ZM719 151.568V159.341H721V151.568H719ZM719 167.114V171H721V167.114H719ZM960 -1H956V1H960V-1ZM948 -1H940V1H948V-1ZM932 -1H924V1H932V-1ZM916 -1H908V1H916V-1ZM900 -1H892V1H900V-1ZM884 -1H876V1H884V-1ZM868 -1H860V1H868V-1ZM852 -1H844V1H852V-1ZM836 -1H828V1H836V-1ZM820 -1H812V1H820V-1ZM804 -1H796V1H804V-1ZM788 -1H780V1H788V-1ZM772 -1H764V1H772V-1ZM756 -1H748V1H756V-1ZM740 -1H732V1H740V-1ZM724 -1H720V1H724V-1Z" fill="#515151" mask="url(#path-8-inside-4_4011_5)"/>
<mask id="path-10-inside-5_4011_5" fill="white">
<path d="M960 0H1200V171H960V0Z"/>
</mask>
<path d="M960 0V-0.5H959.5V0H960ZM959.5 0V3.88636H960.5V0H959.5ZM959.5 11.6591V19.4318H960.5V11.6591H959.5ZM959.5 27.2045V34.9773H960.5V27.2045H959.5ZM959.5 42.75V50.5227H960.5V42.75H959.5ZM959.5 58.2955V66.0682H960.5V58.2955H959.5ZM959.5 73.8409V81.6136H960.5V73.8409H959.5ZM959.5 89.3864V97.1591H960.5V89.3864H959.5ZM959.5 104.932V112.705H960.5V104.932H959.5ZM959.5 120.477V128.25H960.5V120.477H959.5ZM959.5 136.023V143.795H960.5V136.023H959.5ZM959.5 151.568V159.341H960.5V151.568H959.5ZM959.5 167.114V171H960.5V167.114H959.5ZM1200 -0.5H1196V0.5H1200V-0.5ZM1188 -0.5H1180V0.5H1188V-0.5ZM1172 -0.5H1164V0.5H1172V-0.5ZM1156 -0.5H1148V0.5H1156V-0.5ZM1140 -0.5H1132V0.5H1140V-0.5ZM1124 -0.5H1116V0.5H1124V-0.5ZM1108 -0.5H1100V0.5H1108V-0.5ZM1092 -0.5H1084V0.5H1092V-0.5ZM1076 -0.5H1068V0.5H1076V-0.5ZM1060 -0.5H1052V0.5H1060V-0.5ZM1044 -0.5H1036V0.5H1044V-0.5ZM1028 -0.5H1020V0.5H1028V-0.5ZM1012 -0.5H1004V0.5H1012V-0.5ZM996 -0.5H988V0.5H996V-0.5ZM980 -0.5H972V0.5H980V-0.5ZM964 -0.5H960V0.5H964V-0.5ZM960 0V-1H959V0H960ZM959 0V3.88636H961V0H959ZM959 11.6591V19.4318H961V11.6591H959ZM959 27.2045V34.9773H961V27.2045H959ZM959 42.75V50.5227H961V42.75H959ZM959 58.2955V66.0682H961V58.2955H959ZM959 73.8409V81.6136H961V73.8409H959ZM959 89.3864V97.1591H961V89.3864H959ZM959 104.932V112.705H961V104.932H959ZM959 120.477V128.25H961V120.477H959ZM959 136.023V143.795H961V136.023H959ZM959 151.568V159.341H961V151.568H959ZM959 167.114V171H961V167.114H959ZM1200 -1H1196V1H1200V-1ZM1188 -1H1180V1H1188V-1ZM1172 -1H1164V1H1172V-1ZM1156 -1H1148V1H1156V-1ZM1140 -1H1132V1H1140V-1ZM1124 -1H1116V1H1124V-1ZM1108 -1H1100V1H1108V-1ZM1092 -1H1084V1H1092V-1ZM1076 -1H1068V1H1076V-1ZM1060 -1H1052V1H1060V-1ZM1044 -1H1036V1H1044V-1ZM1028 -1H1020V1H1028V-1ZM1012 -1H1004V1H1012V-1ZM996 -1H988V1H996V-1ZM980 -1H972V1H980V-1ZM964 -1H960V1H964V-1Z" fill="#515151" mask="url(#path-10-inside-5_4011_5)"/>
<mask id="path-12-inside-6_4011_5" fill="white">
<path d="M1200 0H1440V171H1200V0Z"/>
</mask>
<path d="M1200 0V-0.5H1199.5V0H1200ZM1199.5 0V3.88636H1200.5V0H1199.5ZM1199.5 11.6591V19.4318H1200.5V11.6591H1199.5ZM1199.5 27.2045V34.9773H1200.5V27.2045H1199.5ZM1199.5 42.75V50.5227H1200.5V42.75H1199.5ZM1199.5 58.2955V66.0682H1200.5V58.2955H1199.5ZM1199.5 73.8409V81.6136H1200.5V73.8409H1199.5ZM1199.5 89.3864V97.1591H1200.5V89.3864H1199.5ZM1199.5 104.932V112.705H1200.5V104.932H1199.5ZM1199.5 120.477V128.25H1200.5V120.477H1199.5ZM1199.5 136.023V143.795H1200.5V136.023H1199.5ZM1199.5 151.568V159.341H1200.5V151.568H1199.5ZM1199.5 167.114V171H1200.5V167.114H1199.5ZM1440 -0.5H1436V0.5H1440V-0.5ZM1428 -0.5H1420V0.5H1428V-0.5ZM1412 -0.5H1404V0.5H1412V-0.5ZM1396 -0.5H1388V0.5H1396V-0.5ZM1380 -0.5H1372V0.5H1380V-0.5ZM1364 -0.5H1356V0.5H1364V-0.5ZM1348 -0.5H1340V0.5H1348V-0.5ZM1332 -0.5H1324V0.5H1332V-0.5ZM1316 -0.5H1308V0.5H1316V-0.5ZM1300 -0.5H1292V0.5H1300V-0.5ZM1284 -0.5H1276V0.5H1284V-0.5ZM1268 -0.5H1260V0.5H1268V-0.5ZM1252 -0.5H1244V0.5H1252V-0.5ZM1236 -0.5H1228V0.5H1236V-0.5ZM1220 -0.5H1212V0.5H1220V-0.5ZM1204 -0.5H1200V0.5H1204V-0.5ZM1200 0V-1H1199V0H1200ZM1199 0V3.88636H1201V0H1199ZM1199 11.6591V19.4318H1201V11.6591H1199ZM1199 27.2045V34.9773H1201V27.2045H1199ZM1199 42.75V50.5227H1201V42.75H1199ZM1199 58.2955V66.0682H1201V58.2955H1199ZM1199 73.8409V81.6136H1201V73.8409H1199ZM1199 89.3864V97.1591H1201V89.3864H1199ZM1199 104.932V112.705H1201V104.932H1199ZM1199 120.477V128.25H1201V120.477H1199ZM1199 136.023V143.795H1201V136.023H1199ZM1199 151.568V159.341H1201V151.568H1199ZM1199 167.114V171H1201V167.114H1199ZM1440 -1H1436V1H1440V-1ZM1428 -1H1420V1H1428V-1ZM1412 -1H1404V1H1412V-1ZM1396 -1H1388V1H1396V-1ZM1380 -1H1372V1H1380V-1ZM1364 -1H1356V1H1364V-1ZM1348 -1H1340V1H1348V-1ZM1332 -1H1324V1H1332V-1ZM1316 -1H1308V1H1316V-1ZM1300 -1H1292V1H1300V-1ZM1284 -1H1276V1H1284V-1ZM1268 -1H1260V1H1268V-1ZM1252 -1H1244V1H1252V-1ZM1236 -1H1228V1H1236V-1ZM1220 -1H1212V1H1220V-1ZM1204 -1H1200V1H1204V-1Z" fill="#515151" mask="url(#path-12-inside-6_4011_5)"/>
<mask id="path-14-inside-7_4011_5" fill="white">
<path d="M0 171H240V342H0V171Z"/>
</mask>
<path d="M0 171V170.5H-0.5V171H0ZM-0.5 171V174.886H0.5V171H-0.5ZM-0.5 182.659V190.432H0.5V182.659H-0.5ZM-0.5 198.205V205.977H0.5V198.205H-0.5ZM-0.5 213.75V221.523H0.5V213.75H-0.5ZM-0.5 229.295V237.068H0.5V229.295H-0.5ZM-0.5 244.841V252.614H0.5V244.841H-0.5ZM-0.5 260.386V268.159H0.5V260.386H-0.5ZM-0.5 275.932V283.705H0.5V275.932H-0.5ZM-0.5 291.477V299.25H0.5V291.477H-0.5ZM-0.5 307.023V314.795H0.5V307.023H-0.5ZM-0.5 322.568V330.341H0.5V322.568H-0.5ZM-0.5 338.114V342H0.5V338.114H-0.5ZM240 170.5H236V171.5H240V170.5ZM228 170.5H220V171.5H228V170.5ZM212 170.5H204V171.5H212V170.5ZM196 170.5H188V171.5H196V170.5ZM180 170.5H172V171.5H180V170.5ZM164 170.5H156V171.5H164V170.5ZM148 170.5H140V171.5H148V170.5ZM132 170.5H124V171.5H132V170.5ZM116 170.5H108V171.5H116V170.5ZM100 170.5H92V171.5H100V170.5ZM84 170.5H76V171.5H84V170.5ZM68 170.5H60V171.5H68V170.5ZM52 170.5H44V171.5H52V170.5ZM36 170.5H28V171.5H36V170.5ZM20 170.5H12V171.5H20V170.5ZM4 170.5H0V171.5H4V170.5ZM0 171V170H-1V171H0ZM-1 171V174.886H1V171H-1ZM-1 182.659V190.432H1V182.659H-1ZM-1 198.205V205.977H1V198.205H-1ZM-1 213.75V221.523H1V213.75H-1ZM-1 229.295V237.068H1V229.295H-1ZM-1 244.841V252.614H1V244.841H-1ZM-1 260.386V268.159H1V260.386H-1ZM-1 275.932V283.705H1V275.932H-1ZM-1 291.477V299.25H1V291.477H-1ZM-1 307.023V314.795H1V307.023H-1ZM-1 322.568V330.341H1V322.568H-1ZM-1 338.114V342H1V338.114H-1ZM240 170H236V172H240V170ZM228 170H220V172H228V170ZM212 170H204V172H212V170ZM196 170H188V172H196V170ZM180 170H172V172H180V170ZM164 170H156V172H164V170ZM148 170H140V172H148V170ZM132 170H124V172H132V170ZM116 170H108V172H116V170ZM100 170H92V172H100V170ZM84 170H76V172H84V170ZM68 170H60V172H68V170ZM52 170H44V172H52V170ZM36 170H28V172H36V170ZM20 170H12V172H20V170ZM4 170H0V172H4V170Z" fill="#515151" mask="url(#path-14-inside-7_4011_5)"/>
<mask id="path-16-inside-8_4011_5" fill="white">
<path d="M240 171H480V342H240V171Z"/>
</mask>
<path d="M240 171V170.5H239.5V171H240ZM239.5 171V174.886H240.5V171H239.5ZM239.5 182.659V190.432H240.5V182.659H239.5ZM239.5 198.205V205.977H240.5V198.205H239.5ZM239.5 213.75V221.523H240.5V213.75H239.5ZM239.5 229.295V237.068H240.5V229.295H239.5ZM239.5 244.841V252.614H240.5V244.841H239.5ZM239.5 260.386V268.159H240.5V260.386H239.5ZM239.5 275.932V283.705H240.5V275.932H239.5ZM239.5 291.477V299.25H240.5V291.477H239.5ZM239.5 307.023V314.795H240.5V307.023H239.5ZM239.5 322.568V330.341H240.5V322.568H239.5ZM239.5 338.114V342H240.5V338.114H239.5ZM480 170.5H476V171.5H480V170.5ZM468 170.5H460V171.5H468V170.5ZM452 170.5H444V171.5H452V170.5ZM436 170.5H428V171.5H436V170.5ZM420 170.5H412V171.5H420V170.5ZM404 170.5H396V171.5H404V170.5ZM388 170.5H380V171.5H388V170.5ZM372 170.5H364V171.5H372V170.5ZM356 170.5H348V171.5H356V170.5ZM340 170.5H332V171.5H340V170.5ZM324 170.5H316V171.5H324V170.5ZM308 170.5H300V171.5H308V170.5ZM292 170.5H284V171.5H292V170.5ZM276 170.5H268V171.5H276V170.5ZM260 170.5H252V171.5H260V170.5ZM244 170.5H240V171.5H244V170.5ZM240 171V170H239V171H240ZM239 171V174.886H241V171H239ZM239 182.659V190.432H241V182.659H239ZM239 198.205V205.977H241V198.205H239ZM239 213.75V221.523H241V213.75H239ZM239 229.295V237.068H241V229.295H239ZM239 244.841V252.614H241V244.841H239ZM239 260.386V268.159H241V260.386H239ZM239 275.932V283.705H241V275.932H239ZM239 291.477V299.25H241V291.477H239ZM239 307.023V314.795H241V307.023H239ZM239 322.568V330.341H241V322.568H239ZM239 338.114V342H241V338.114H239ZM480 170H476V172H480V170ZM468 170H460V172H468V170ZM452 170H444V172H452V170ZM436 170H428V172H436V170ZM420 170H412V172H420V170ZM404 170H396V172H404V170ZM388 170H380V172H388V170ZM372 170H364V172H372V170ZM356 170H348V172H356V170ZM340 170H332V172H340V170ZM324 170H316V172H324V170ZM308 170H300V172H308V170ZM292 170H284V172H292V170ZM276 170H268V172H276V170ZM260 170H252V172H260V170ZM244 170H240V172H244V170Z" fill="#515151" mask="url(#path-16-inside-8_4011_5)"/>
<mask id="path-18-inside-9_4011_5" fill="white">
<path d="M480 171H720V342H480V171Z"/>
</mask>
<path d="M480 171V170.5H479.5V171H480ZM479.5 171V174.886H480.5V171H479.5ZM479.5 182.659V190.432H480.5V182.659H479.5ZM479.5 198.205V205.977H480.5V198.205H479.5ZM479.5 213.75V221.523H480.5V213.75H479.5ZM479.5 229.295V237.068H480.5V229.295H479.5ZM479.5 244.841V252.614H480.5V244.841H479.5ZM479.5 260.386V268.159H480.5V260.386H479.5ZM479.5 275.932V283.705H480.5V275.932H479.5ZM479.5 291.477V299.25H480.5V291.477H479.5ZM479.5 307.023V314.795H480.5V307.023H479.5ZM479.5 322.568V330.341H480.5V322.568H479.5ZM479.5 338.114V342H480.5V338.114H479.5ZM720 170.5H716V171.5H720V170.5ZM708 170.5H700V171.5H708V170.5ZM692 170.5H684V171.5H692V170.5ZM676 170.5H668V171.5H676V170.5ZM660 170.5H652V171.5H660V170.5ZM644 170.5H636V171.5H644V170.5ZM628 170.5H620V171.5H628V170.5ZM612 170.5H604V171.5H612V170.5ZM596 170.5H588V171.5H596V170.5ZM580 170.5H572V171.5H580V170.5ZM564 170.5H556V171.5H564V170.5ZM548 170.5H540V171.5H548V170.5ZM532 170.5H524V171.5H532V170.5ZM516 170.5H508V171.5H516V170.5ZM500 170.5H492V171.5H500V170.5ZM484 170.5H480V171.5H484V170.5ZM480 171V170H479V171H480ZM479 171V174.886H481V171H479ZM479 182.659V190.432H481V182.659H479ZM479 198.205V205.977H481V198.205H479ZM479 213.75V221.523H481V213.75H479ZM479 229.295V237.068H481V229.295H479ZM479 244.841V252.614H481V244.841H479ZM479 260.386V268.159H481V260.386H479ZM479 275.932V283.705H481V275.932H479ZM479 291.477V299.25H481V291.477H479ZM479 307.023V314.795H481V307.023H479ZM479 322.568V330.341H481V322.568H479ZM479 338.114V342H481V338.114H479ZM720 170H716V172H720V170ZM708 170H700V172H708V170ZM692 170H684V172H692V170ZM676 170H668V172H676V170ZM660 170H652V172H660V170ZM644 170H636V172H644V170ZM628 170H620V172H628V170ZM612 170H604V172H612V170ZM596 170H588V172H596V170ZM580 170H572V172H580V170ZM564 170H556V172H564V170ZM548 170H540V172H548V170ZM532 170H524V172H532V170ZM516 170H508V172H516V170ZM500 170H492V172H500V170ZM484 170H480V172H484V170Z" fill="#515151" mask="url(#path-18-inside-9_4011_5)"/>
<mask id="path-20-inside-10_4011_5" fill="white">
<path d="M720 171H960V342H720V171Z"/>
</mask>
<path d="M720 171V170.5H719.5V171H720ZM719.5 171V174.886H720.5V171H719.5ZM719.5 182.659V190.432H720.5V182.659H719.5ZM719.5 198.205V205.977H720.5V198.205H719.5ZM719.5 213.75V221.523H720.5V213.75H719.5ZM719.5 229.295V237.068H720.5V229.295H719.5ZM719.5 244.841V252.614H720.5V244.841H719.5ZM719.5 260.386V268.159H720.5V260.386H719.5ZM719.5 275.932V283.705H720.5V275.932H719.5ZM719.5 291.477V299.25H720.5V291.477H719.5ZM719.5 307.023V314.795H720.5V307.023H719.5ZM719.5 322.568V330.341H720.5V322.568H719.5ZM719.5 338.114V342H720.5V338.114H719.5ZM960 170.5H956V171.5H960V170.5ZM948 170.5H940V171.5H948V170.5ZM932 170.5H924V171.5H932V170.5ZM916 170.5H908V171.5H916V170.5ZM900 170.5H892V171.5H900V170.5ZM884 170.5H876V171.5H884V170.5ZM868 170.5H860V171.5H868V170.5ZM852 170.5H844V171.5H852V170.5ZM836 170.5H828V171.5H836V170.5ZM820 170.5H812V171.5H820V170.5ZM804 170.5H796V171.5H804V170.5ZM788 170.5H780V171.5H788V170.5ZM772 170.5H764V171.5H772V170.5ZM756 170.5H748V171.5H756V170.5ZM740 170.5H732V171.5H740V170.5ZM724 170.5H720V171.5H724V170.5ZM720 171V170H719V171H720ZM719 171V174.886H721V171H719ZM719 182.659V190.432H721V182.659H719ZM719 198.205V205.977H721V198.205H719ZM719 213.75V221.523H721V213.75H719ZM719 229.295V237.068H721V229.295H719ZM719 244.841V252.614H721V244.841H719ZM719 260.386V268.159H721V260.386H719ZM719 275.932V283.705H721V275.932H719ZM719 291.477V299.25H721V291.477H719ZM719 307.023V314.795H721V307.023H719ZM719 322.568V330.341H721V322.568H719ZM719 338.114V342H721V338.114H719ZM960 170H956V172H960V170ZM948 170H940V172H948V170ZM932 170H924V172H932V170ZM916 170H908V172H916V170ZM900 170H892V172H900V170ZM884 170H876V172H884V170ZM868 170H860V172H868V170ZM852 170H844V172H852V170ZM836 170H828V172H836V170ZM820 170H812V172H820V170ZM804 170H796V172H804V170ZM788 170H780V172H788V170ZM772 170H764V172H772V170ZM756 170H748V172H756V170ZM740 170H732V172H740V170ZM724 170H720V172H724V170Z" fill="#515151" mask="url(#path-20-inside-10_4011_5)"/>
<mask id="path-22-inside-11_4011_5" fill="white">
<path d="M960 171H1200V342H960V171Z"/>
</mask>
<path d="M960 171V170.5H959.5V171H960ZM959.5 171V174.886H960.5V171H959.5ZM959.5 182.659V190.432H960.5V182.659H959.5ZM959.5 198.205V205.977H960.5V198.205H959.5ZM959.5 213.75V221.523H960.5V213.75H959.5ZM959.5 229.295V237.068H960.5V229.295H959.5ZM959.5 244.841V252.614H960.5V244.841H959.5ZM959.5 260.386V268.159H960.5V260.386H959.5ZM959.5 275.932V283.705H960.5V275.932H959.5ZM959.5 291.477V299.25H960.5V291.477H959.5ZM959.5 307.023V314.795H960.5V307.023H959.5ZM959.5 322.568V330.341H960.5V322.568H959.5ZM959.5 338.114V342H960.5V338.114H959.5ZM1200 170.5H1196V171.5H1200V170.5ZM1188 170.5H1180V171.5H1188V170.5ZM1172 170.5H1164V171.5H1172V170.5ZM1156 170.5H1148V171.5H1156V170.5ZM1140 170.5H1132V171.5H1140V170.5ZM1124 170.5H1116V171.5H1124V170.5ZM1108 170.5H1100V171.5H1108V170.5ZM1092 170.5H1084V171.5H1092V170.5ZM1076 170.5H1068V171.5H1076V170.5ZM1060 170.5H1052V171.5H1060V170.5ZM1044 170.5H1036V171.5H1044V170.5ZM1028 170.5H1020V171.5H1028V170.5ZM1012 170.5H1004V171.5H1012V170.5ZM996 170.5H988V171.5H996V170.5ZM980 170.5H972V171.5H980V170.5ZM964 170.5H960V171.5H964V170.5ZM960 171V170H959V171H960ZM959 171V174.886H961V171H959ZM959 182.659V190.432H961V182.659H959ZM959 198.205V205.977H961V198.205H959ZM959 213.75V221.523H961V213.75H959ZM959 229.295V237.068H961V229.295H959ZM959 244.841V252.614H961V244.841H959ZM959 260.386V268.159H961V260.386H959ZM959 275.932V283.705H961V275.932H959ZM959 291.477V299.25H961V291.477H959ZM959 307.023V314.795H961V307.023H959ZM959 322.568V330.341H961V322.568H959ZM959 338.114V342H961V338.114H959ZM1200 170H1196V172H1200V170ZM1188 170H1180V172H1188V170ZM1172 170H1164V172H1172V170ZM1156 170H1148V172H1156V170ZM1140 170H1132V172H1140V170ZM1124 170H1116V172H1124V170ZM1108 170H1100V172H1108V170ZM1092 170H1084V172H1092V170ZM1076 170H1068V172H1076V170ZM1060 170H1052V172H1060V170ZM1044 170H1036V172H1044V170ZM1028 170H1020V172H1028V170ZM1012 170H1004V172H1012V170ZM996 170H988V172H996V170ZM980 170H972V172H980V170ZM964 170H960V172H964V170Z" fill="#515151" mask="url(#path-22-inside-11_4011_5)"/>
<mask id="path-24-inside-12_4011_5" fill="white">
<path d="M1200 171H1440V342H1200V171Z"/>
</mask>
<path d="M1200 171V170.5H1199.5V171H1200ZM1199.5 171V174.886H1200.5V171H1199.5ZM1199.5 182.659V190.432H1200.5V182.659H1199.5ZM1199.5 198.205V205.977H1200.5V198.205H1199.5ZM1199.5 213.75V221.523H1200.5V213.75H1199.5ZM1199.5 229.295V237.068H1200.5V229.295H1199.5ZM1199.5 244.841V252.614H1200.5V244.841H1199.5ZM1199.5 260.386V268.159H1200.5V260.386H1199.5ZM1199.5 275.932V283.705H1200.5V275.932H1199.5ZM1199.5 291.477V299.25H1200.5V291.477H1199.5ZM1199.5 307.023V314.795H1200.5V307.023H1199.5ZM1199.5 322.568V330.341H1200.5V322.568H1199.5ZM1199.5 338.114V342H1200.5V338.114H1199.5ZM1440 170.5H1436V171.5H1440V170.5ZM1428 170.5H1420V171.5H1428V170.5ZM1412 170.5H1404V171.5H1412V170.5ZM1396 170.5H1388V171.5H1396V170.5ZM1380 170.5H1372V171.5H1380V170.5ZM1364 170.5H1356V171.5H1364V170.5ZM1348 170.5H1340V171.5H1348V170.5ZM1332 170.5H1324V171.5H1332V170.5ZM1316 170.5H1308V171.5H1316V170.5ZM1300 170.5H1292V171.5H1300V170.5ZM1284 170.5H1276V171.5H1284V170.5ZM1268 170.5H1260V171.5H1268V170.5ZM1252 170.5H1244V171.5H1252V170.5ZM1236 170.5H1228V171.5H1236V170.5ZM1220 170.5H1212V171.5H1220V170.5ZM1204 170.5H1200V171.5H1204V170.5ZM1200 171V170H1199V171H1200ZM1199 171V174.886H1201V171H1199ZM1199 182.659V190.432H1201V182.659H1199ZM1199 198.205V205.977H1201V198.205H1199ZM1199 213.75V221.523H1201V213.75H1199ZM1199 229.295V237.068H1201V229.295H1199ZM1199 244.841V252.614H1201V244.841H1199ZM1199 260.386V268.159H1201V260.386H1199ZM1199 275.932V283.705H1201V275.932H1199ZM1199 291.477V299.25H1201V291.477H1199ZM1199 307.023V314.795H1201V307.023H1199ZM1199 322.568V330.341H1201V322.568H1199ZM1199 338.114V342H1201V338.114H1199ZM1440 170H1436V172H1440V170ZM1428 170H1420V172H1428V170ZM1412 170H1404V172H1412V170ZM1396 170H1388V172H1396V170ZM1380 170H1372V172H1380V170ZM1364 170H1356V172H1364V170ZM1348 170H1340V172H1348V170ZM1332 170H1324V172H1332V170ZM1316 170H1308V172H1316V170ZM1300 170H1292V172H1300V170ZM1284 170H1276V172H1284V170ZM1268 170H1260V172H1268V170ZM1252 170H1244V172H1252V170ZM1236 170H1228V172H1236V170ZM1220 170H1212V172H1220V170ZM1204 170H1200V172H1204V170Z" fill="#515151" mask="url(#path-24-inside-12_4011_5)"/>
<mask id="path-26-inside-13_4011_5" fill="white">
<path d="M0 342H240V513H0V342Z"/>
</mask>
<path d="M0 342V341.5H-0.5V342H0ZM-0.5 342V345.886H0.5V342H-0.5ZM-0.5 353.659V361.432H0.5V353.659H-0.5ZM-0.5 369.205V376.977H0.5V369.205H-0.5ZM-0.5 384.75V392.523H0.5V384.75H-0.5ZM-0.5 400.295V408.068H0.5V400.295H-0.5ZM-0.5 415.841V423.614H0.5V415.841H-0.5ZM-0.5 431.386V439.159H0.5V431.386H-0.5ZM-0.5 446.932V454.705H0.5V446.932H-0.5ZM-0.5 462.477V470.25H0.5V462.477H-0.5ZM-0.5 478.023V485.795H0.5V478.023H-0.5ZM-0.5 493.568V501.341H0.5V493.568H-0.5ZM-0.5 509.114V513H0.5V509.114H-0.5ZM240 341.5H236V342.5H240V341.5ZM228 341.5H220V342.5H228V341.5ZM212 341.5H204V342.5H212V341.5ZM196 341.5H188V342.5H196V341.5ZM180 341.5H172V342.5H180V341.5ZM164 341.5H156V342.5H164V341.5ZM148 341.5H140V342.5H148V341.5ZM132 341.5H124V342.5H132V341.5ZM116 341.5H108V342.5H116V341.5ZM100 341.5H92V342.5H100V341.5ZM84 341.5H76V342.5H84V341.5ZM68 341.5H60V342.5H68V341.5ZM52 341.5H44V342.5H52V341.5ZM36 341.5H28V342.5H36V341.5ZM20 341.5H12V342.5H20V341.5ZM4 341.5H0V342.5H4V341.5ZM0 342V341H-1V342H0ZM-1 342V345.886H1V342H-1ZM-1 353.659V361.432H1V353.659H-1ZM-1 369.205V376.977H1V369.205H-1ZM-1 384.75V392.523H1V384.75H-1ZM-1 400.295V408.068H1V400.295H-1ZM-1 415.841V423.614H1V415.841H-1ZM-1 431.386V439.159H1V431.386H-1ZM-1 446.932V454.705H1V446.932H-1ZM-1 462.477V470.25H1V462.477H-1ZM-1 478.023V485.795H1V478.023H-1ZM-1 493.568V501.341H1V493.568H-1ZM-1 509.114V513H1V509.114H-1ZM240 341H236V343H240V341ZM228 341H220V343H228V341ZM212 341H204V343H212V341ZM196 341H188V343H196V341ZM180 341H172V343H180V341ZM164 341H156V343H164V341ZM148 341H140V343H148V341ZM132 341H124V343H132V341ZM116 341H108V343H116V341ZM100 341H92V343H100V341ZM84 341H76V343H84V341ZM68 341H60V343H68V341ZM52 341H44V343H52V341ZM36 341H28V343H36V341ZM20 341H12V343H20V341ZM4 341H0V343H4V341Z" fill="#515151" mask="url(#path-26-inside-13_4011_5)"/>
<mask id="path-28-inside-14_4011_5" fill="white">
<path d="M240 342H480V513H240V342Z"/>
</mask>
<path d="M240 342V341.5H239.5V342H240ZM239.5 342V345.886H240.5V342H239.5ZM239.5 353.659V361.432H240.5V353.659H239.5ZM239.5 369.205V376.977H240.5V369.205H239.5ZM239.5 384.75V392.523H240.5V384.75H239.5ZM239.5 400.295V408.068H240.5V400.295H239.5ZM239.5 415.841V423.614H240.5V415.841H239.5ZM239.5 431.386V439.159H240.5V431.386H239.5ZM239.5 446.932V454.705H240.5V446.932H239.5ZM239.5 462.477V470.25H240.5V462.477H239.5ZM239.5 478.023V485.795H240.5V478.023H239.5ZM239.5 493.568V501.341H240.5V493.568H239.5ZM239.5 509.114V513H240.5V509.114H239.5ZM480 341.5H476V342.5H480V341.5ZM468 341.5H460V342.5H468V341.5ZM452 341.5H444V342.5H452V341.5ZM436 341.5H428V342.5H436V341.5ZM420 341.5H412V342.5H420V341.5ZM404 341.5H396V342.5H404V341.5ZM388 341.5H380V342.5H388V341.5ZM372 341.5H364V342.5H372V341.5ZM356 341.5H348V342.5H356V341.5ZM340 341.5H332V342.5H340V341.5ZM324 341.5H316V342.5H324V341.5ZM308 341.5H300V342.5H308V341.5ZM292 341.5H284V342.5H292V341.5ZM276 341.5H268V342.5H276V341.5ZM260 341.5H252V342.5H260V341.5ZM244 341.5H240V342.5H244V341.5ZM240 342V341H239V342H240ZM239 342V345.886H241V342H239ZM239 353.659V361.432H241V353.659H239ZM239 369.205V376.977H241V369.205H239ZM239 384.75V392.523H241V384.75H239ZM239 400.295V408.068H241V400.295H239ZM239 415.841V423.614H241V415.841H239ZM239 431.386V439.159H241V431.386H239ZM239 446.932V454.705H241V446.932H239ZM239 462.477V470.25H241V462.477H239ZM239 478.023V485.795H241V478.023H239ZM239 493.568V501.341H241V493.568H239ZM239 509.114V513H241V509.114H239ZM480 341H476V343H480V341ZM468 341H460V343H468V341ZM452 341H444V343H452V341ZM436 341H428V343H436V341ZM420 341H412V343H420V341ZM404 341H396V343H404V341ZM388 341H380V343H388V341ZM372 341H364V343H372V341ZM356 341H348V343H356V341ZM340 341H332V343H340V341ZM324 341H316V343H324V341ZM308 341H300V343H308V341ZM292 341H284V343H292V341ZM276 341H268V343H276V341ZM260 341H252V343H260V341ZM244 341H240V343H244V341Z" fill="#515151" mask="url(#path-28-inside-14_4011_5)"/>
<mask id="path-30-inside-15_4011_5" fill="white">
<path d="M480 342H720V513H480V342Z"/>
</mask>
<path d="M480 342V341.5H479.5V342H480ZM479.5 342V345.886H480.5V342H479.5ZM479.5 353.659V361.432H480.5V353.659H479.5ZM479.5 369.205V376.977H480.5V369.205H479.5ZM479.5 384.75V392.523H480.5V384.75H479.5ZM479.5 400.295V408.068H480.5V400.295H479.5ZM479.5 415.841V423.614H480.5V415.841H479.5ZM479.5 431.386V439.159H480.5V431.386H479.5ZM479.5 446.932V454.705H480.5V446.932H479.5ZM479.5 462.477V470.25H480.5V462.477H479.5ZM479.5 478.023V485.795H480.5V478.023H479.5ZM479.5 493.568V501.341H480.5V493.568H479.5ZM479.5 509.114V513H480.5V509.114H479.5ZM720 341.5H716V342.5H720V341.5ZM708 341.5H700V342.5H708V341.5ZM692 341.5H684V342.5H692V341.5ZM676 341.5H668V342.5H676V341.5ZM660 341.5H652V342.5H660V341.5ZM644 341.5H636V342.5H644V341.5ZM628 341.5H620V342.5H628V341.5ZM612 341.5H604V342.5H612V341.5ZM596 341.5H588V342.5H596V341.5ZM580 341.5H572V342.5H580V341.5ZM564 341.5H556V342.5H564V341.5ZM548 341.5H540V342.5H548V341.5ZM532 341.5H524V342.5H532V341.5ZM516 341.5H508V342.5H516V341.5ZM500 341.5H492V342.5H500V341.5ZM484 341.5H480V342.5H484V341.5ZM480 342V341H479V342H480ZM479 342V345.886H481V342H479ZM479 353.659V361.432H481V353.659H479ZM479 369.205V376.977H481V369.205H479ZM479 384.75V392.523H481V384.75H479ZM479 400.295V408.068H481V400.295H479ZM479 415.841V423.614H481V415.841H479ZM479 431.386V439.159H481V431.386H479ZM479 446.932V454.705H481V446.932H479ZM479 462.477V470.25H481V462.477H479ZM479 478.023V485.795H481V478.023H479ZM479 493.568V501.341H481V493.568H479ZM479 509.114V513H481V509.114H479ZM720 341H716V343H720V341ZM708 341H700V343H708V341ZM692 341H684V343H692V341ZM676 341H668V343H676V341ZM660 341H652V343H660V341ZM644 341H636V343H644V341ZM628 341H620V343H628V341ZM612 341H604V343H612V341ZM596 341H588V343H596V341ZM580 341H572V343H580V341ZM564 341H556V343H564V341ZM548 341H540V343H548V341ZM532 341H524V343H532V341ZM516 341H508V343H516V341ZM500 341H492V343H500V341ZM484 341H480V343H484V341Z" fill="#515151" mask="url(#path-30-inside-15_4011_5)"/>
<mask id="path-32-inside-16_4011_5" fill="white">
<path d="M720 342H960V513H720V342Z"/>
</mask>
<path d="M720 342V341.5H719.5V342H720ZM719.5 342V345.886H720.5V342H719.5ZM719.5 353.659V361.432H720.5V353.659H719.5ZM719.5 369.205V376.977H720.5V369.205H719.5ZM719.5 384.75V392.523H720.5V384.75H719.5ZM719.5 400.295V408.068H720.5V400.295H719.5ZM719.5 415.841V423.614H720.5V415.841H719.5ZM719.5 431.386V439.159H720.5V431.386H719.5ZM719.5 446.932V454.705H720.5V446.932H719.5ZM719.5 462.477V470.25H720.5V462.477H719.5ZM719.5 478.023V485.795H720.5V478.023H719.5ZM719.5 493.568V501.341H720.5V493.568H719.5ZM719.5 509.114V513H720.5V509.114H719.5ZM960 341.5H956V342.5H960V341.5ZM948 341.5H940V342.5H948V341.5ZM932 341.5H924V342.5H932V341.5ZM916 341.5H908V342.5H916V341.5ZM900 341.5H892V342.5H900V341.5ZM884 341.5H876V342.5H884V341.5ZM868 341.5H860V342.5H868V341.5ZM852 341.5H844V342.5H852V341.5ZM836 341.5H828V342.5H836V341.5ZM820 341.5H812V342.5H820V341.5ZM804 341.5H796V342.5H804V341.5ZM788 341.5H780V342.5H788V341.5ZM772 341.5H764V342.5H772V341.5ZM756 341.5H748V342.5H756V341.5ZM740 341.5H732V342.5H740V341.5ZM724 341.5H720V342.5H724V341.5ZM720 342V341H719V342H720ZM719 342V345.886H721V342H719ZM719 353.659V361.432H721V353.659H719ZM719 369.205V376.977H721V369.205H719ZM719 384.75V392.523H721V384.75H719ZM719 400.295V408.068H721V400.295H719ZM719 415.841V423.614H721V415.841H719ZM719 431.386V439.159H721V431.386H719ZM719 446.932V454.705H721V446.932H719ZM719 462.477V470.25H721V462.477H719ZM719 478.023V485.795H721V478.023H719ZM719 493.568V501.341H721V493.568H719ZM719 509.114V513H721V509.114H719ZM960 341H956V343H960V341ZM948 341H940V343H948V341ZM932 341H924V343H932V341ZM916 341H908V343H916V341ZM900 341H892V343H900V341ZM884 341H876V343H884V341ZM868 341H860V343H868V341ZM852 341H844V343H852V341ZM836 341H828V343H836V341ZM820 341H812V343H820V341ZM804 341H796V343H804V341ZM788 341H780V343H788V341ZM772 341H764V343H772V341ZM756 341H748V343H756V341ZM740 341H732V343H740V341ZM724 341H720V343H724V341Z" fill="#515151" mask="url(#path-32-inside-16_4011_5)"/>
<mask id="path-34-inside-17_4011_5" fill="white">
<path d="M960 342H1200V513H960V342Z"/>
</mask>
<path d="M960 342V341.5H959.5V342H960ZM959.5 342V345.886H960.5V342H959.5ZM959.5 353.659V361.432H960.5V353.659H959.5ZM959.5 369.205V376.977H960.5V369.205H959.5ZM959.5 384.75V392.523H960.5V384.75H959.5ZM959.5 400.295V408.068H960.5V400.295H959.5ZM959.5 415.841V423.614H960.5V415.841H959.5ZM959.5 431.386V439.159H960.5V431.386H959.5ZM959.5 446.932V454.705H960.5V446.932H959.5ZM959.5 462.477V470.25H960.5V462.477H959.5ZM959.5 478.023V485.795H960.5V478.023H959.5ZM959.5 493.568V501.341H960.5V493.568H959.5ZM959.5 509.114V513H960.5V509.114H959.5ZM1200 341.5H1196V342.5H1200V341.5ZM1188 341.5H1180V342.5H1188V341.5ZM1172 341.5H1164V342.5H1172V341.5ZM1156 341.5H1148V342.5H1156V341.5ZM1140 341.5H1132V342.5H1140V341.5ZM1124 341.5H1116V342.5H1124V341.5ZM1108 341.5H1100V342.5H1108V341.5ZM1092 341.5H1084V342.5H1092V341.5ZM1076 341.5H1068V342.5H1076V341.5ZM1060 341.5H1052V342.5H1060V341.5ZM1044 341.5H1036V342.5H1044V341.5ZM1028 341.5H1020V342.5H1028V341.5ZM1012 341.5H1004V342.5H1012V341.5ZM996 341.5H988V342.5H996V341.5ZM980 341.5H972V342.5H980V341.5ZM964 341.5H960V342.5H964V341.5ZM960 342V341H959V342H960ZM959 342V345.886H961V342H959ZM959 353.659V361.432H961V353.659H959ZM959 369.205V376.977H961V369.205H959ZM959 384.75V392.523H961V384.75H959ZM959 400.295V408.068H961V400.295H959ZM959 415.841V423.614H961V415.841H959ZM959 431.386V439.159H961V431.386H959ZM959 446.932V454.705H961V446.932H959ZM959 462.477V470.25H961V462.477H959ZM959 478.023V485.795H961V478.023H959ZM959 493.568V501.341H961V493.568H959ZM959 509.114V513H961V509.114H959ZM1200 341H1196V343H1200V341ZM1188 341H1180V343H1188V341ZM1172 341H1164V343H1172V341ZM1156 341H1148V343H1156V341ZM1140 341H1132V343H1140V341ZM1124 341H1116V343H1124V341ZM1108 341H1100V343H1108V341ZM1092 341H1084V343H1092V341ZM1076 341H1068V343H1076V341ZM1060 341H1052V343H1060V341ZM1044 341H1036V343H1044V341ZM1028 341H1020V343H1028V341ZM1012 341H1004V343H1012V341ZM996 341H988V343H996V341ZM980 341H972V343H980V341ZM964 341H960V343H964V341Z" fill="#515151" mask="url(#path-34-inside-17_4011_5)"/>
<mask id="path-36-inside-18_4011_5" fill="white">
<path d="M1200 342H1440V513H1200V342Z"/>
</mask>
<path d="M1200 342V341.5H1199.5V342H1200ZM1199.5 342V345.886H1200.5V342H1199.5ZM1199.5 353.659V361.432H1200.5V353.659H1199.5ZM1199.5 369.205V376.977H1200.5V369.205H1199.5ZM1199.5 384.75V392.523H1200.5V384.75H1199.5ZM1199.5 400.295V408.068H1200.5V400.295H1199.5ZM1199.5 415.841V423.614H1200.5V415.841H1199.5ZM1199.5 431.386V439.159H1200.5V431.386H1199.5ZM1199.5 446.932V454.705H1200.5V446.932H1199.5ZM1199.5 462.477V470.25H1200.5V462.477H1199.5ZM1199.5 478.023V485.795H1200.5V478.023H1199.5ZM1199.5 493.568V501.341H1200.5V493.568H1199.5ZM1199.5 509.114V513H1200.5V509.114H1199.5ZM1440 341.5H1436V342.5H1440V341.5ZM1428 341.5H1420V342.5H1428V341.5ZM1412 341.5H1404V342.5H1412V341.5ZM1396 341.5H1388V342.5H1396V341.5ZM1380 341.5H1372V342.5H1380V341.5ZM1364 341.5H1356V342.5H1364V341.5ZM1348 341.5H1340V342.5H1348V341.5ZM1332 341.5H1324V342.5H1332V341.5ZM1316 341.5H1308V342.5H1316V341.5ZM1300 341.5H1292V342.5H1300V341.5ZM1284 341.5H1276V342.5H1284V341.5ZM1268 341.5H1260V342.5H1268V341.5ZM1252 341.5H1244V342.5H1252V341.5ZM1236 341.5H1228V342.5H1236V341.5ZM1220 341.5H1212V342.5H1220V341.5ZM1204 341.5H1200V342.5H1204V341.5ZM1200 342V341H1199V342H1200ZM1199 342V345.886H1201V342H1199ZM1199 353.659V361.432H1201V353.659H1199ZM1199 369.205V376.977H1201V369.205H1199ZM1199 384.75V392.523H1201V384.75H1199ZM1199 400.295V408.068H1201V400.295H1199ZM1199 415.841V423.614H1201V415.841H1199ZM1199 431.386V439.159H1201V431.386H1199ZM1199 446.932V454.705H1201V446.932H1199ZM1199 462.477V470.25H1201V462.477H1199ZM1199 478.023V485.795H1201V478.023H1199ZM1199 493.568V501.341H1201V493.568H1199ZM1199 509.114V513H1201V509.114H1199ZM1440 341H1436V343H1440V341ZM1428 341H1420V343H1428V341ZM1412 341H1404V343H1412V341ZM1396 341H1388V343H1396V341ZM1380 341H1372V343H1380V341ZM1364 341H1356V343H1364V341ZM1348 341H1340V343H1348V341ZM1332 341H1324V343H1332V341ZM1316 341H1308V343H1316V341ZM1300 341H1292V343H1300V341ZM1284 341H1276V343H1284V341ZM1268 341H1260V343H1268V341ZM1252 341H1244V343H1252V341ZM1236 341H1228V343H1236V341ZM1220 341H1212V343H1220V341ZM1204 341H1200V343H1204V341Z" fill="#515151" mask="url(#path-36-inside-18_4011_5)"/>
<mask id="path-38-inside-19_4011_5" fill="white">
<path d="M0 513H240V684H0V513Z"/>
</mask>
<path d="M0 513V512.5H-0.5V513H0ZM-0.5 513V516.886H0.5V513H-0.5ZM-0.5 524.659V532.432H0.5V524.659H-0.5ZM-0.5 540.205V547.977H0.5V540.205H-0.5ZM-0.5 555.75V563.523H0.5V555.75H-0.5ZM-0.5 571.295V579.068H0.5V571.295H-0.5ZM-0.5 586.841V594.614H0.5V586.841H-0.5ZM-0.5 602.386V610.159H0.5V602.386H-0.5ZM-0.5 617.932V625.705H0.5V617.932H-0.5ZM-0.5 633.477V641.25H0.5V633.477H-0.5ZM-0.5 649.023V656.795H0.5V649.023H-0.5ZM-0.5 664.568V672.341H0.5V664.568H-0.5ZM-0.5 680.114V684H0.5V680.114H-0.5ZM240 512.5H236V513.5H240V512.5ZM228 512.5H220V513.5H228V512.5ZM212 512.5H204V513.5H212V512.5ZM196 512.5H188V513.5H196V512.5ZM180 512.5H172V513.5H180V512.5ZM164 512.5H156V513.5H164V512.5ZM148 512.5H140V513.5H148V512.5ZM132 512.5H124V513.5H132V512.5ZM116 512.5H108V513.5H116V512.5ZM100 512.5H92V513.5H100V512.5ZM84 512.5H76V513.5H84V512.5ZM68 512.5H60V513.5H68V512.5ZM52 512.5H44V513.5H52V512.5ZM36 512.5H28V513.5H36V512.5ZM20 512.5H12V513.5H20V512.5ZM4 512.5H0V513.5H4V512.5ZM0 513V512H-1V513H0ZM-1 513V516.886H1V513H-1ZM-1 524.659V532.432H1V524.659H-1ZM-1 540.205V547.977H1V540.205H-1ZM-1 555.75V563.523H1V555.75H-1ZM-1 571.295V579.068H1V571.295H-1ZM-1 586.841V594.614H1V586.841H-1ZM-1 602.386V610.159H1V602.386H-1ZM-1 617.932V625.705H1V617.932H-1ZM-1 633.477V641.25H1V633.477H-1ZM-1 649.023V656.795H1V649.023H-1ZM-1 664.568V672.341H1V664.568H-1ZM-1 680.114V684H1V680.114H-1ZM240 512H236V514H240V512ZM228 512H220V514H228V512ZM212 512H204V514H212V512ZM196 512H188V514H196V512ZM180 512H172V514H180V512ZM164 512H156V514H164V512ZM148 512H140V514H148V512ZM132 512H124V514H132V512ZM116 512H108V514H116V512ZM100 512H92V514H100V512ZM84 512H76V514H84V512ZM68 512H60V514H68V512ZM52 512H44V514H52V512ZM36 512H28V514H36V512ZM20 512H12V514H20V512ZM4 512H0V514H4V512Z" fill="#515151" mask="url(#path-38-inside-19_4011_5)"/>
<mask id="path-40-inside-20_4011_5" fill="white">
<path d="M240 513H480V684H240V513Z"/>
</mask>
<path d="M240 513V512.5H239.5V513H240ZM239.5 513V516.886H240.5V513H239.5ZM239.5 524.659V532.432H240.5V524.659H239.5ZM239.5 540.205V547.977H240.5V540.205H239.5ZM239.5 555.75V563.523H240.5V555.75H239.5ZM239.5 571.295V579.068H240.5V571.295H239.5ZM239.5 586.841V594.614H240.5V586.841H239.5ZM239.5 602.386V610.159H240.5V602.386H239.5ZM239.5 617.932V625.705H240.5V617.932H239.5ZM239.5 633.477V641.25H240.5V633.477H239.5ZM239.5 649.023V656.795H240.5V649.023H239.5ZM239.5 664.568V672.341H240.5V664.568H239.5ZM239.5 680.114V684H240.5V680.114H239.5ZM480 512.5H476V513.5H480V512.5ZM468 512.5H460V513.5H468V512.5ZM452 512.5H444V513.5H452V512.5ZM436 512.5H428V513.5H436V512.5ZM420 512.5H412V513.5H420V512.5ZM404 512.5H396V513.5H404V512.5ZM388 512.5H380V513.5H388V512.5ZM372 512.5H364V513.5H372V512.5ZM356 512.5H348V513.5H356V512.5ZM340 512.5H332V513.5H340V512.5ZM324 512.5H316V513.5H324V512.5ZM308 512.5H300V513.5H308V512.5ZM292 512.5H284V513.5H292V512.5ZM276 512.5H268V513.5H276V512.5ZM260 512.5H252V513.5H260V512.5ZM244 512.5H240V513.5H244V512.5ZM240 513V512H239V513H240ZM239 513V516.886H241V513H239ZM239 524.659V532.432H241V524.659H239ZM239 540.205V547.977H241V540.205H239ZM239 555.75V563.523H241V555.75H239ZM239 571.295V579.068H241V571.295H239ZM239 586.841V594.614H241V586.841H239ZM239 602.386V610.159H241V602.386H239ZM239 617.932V625.705H241V617.932H239ZM239 633.477V641.25H241V633.477H239ZM239 649.023V656.795H241V649.023H239ZM239 664.568V672.341H241V664.568H239ZM239 680.114V684H241V680.114H239ZM480 512H476V514H480V512ZM468 512H460V514H468V512ZM452 512H444V514H452V512ZM436 512H428V514H436V512ZM420 512H412V514H420V512ZM404 512H396V514H404V512ZM388 512H380V514H388V512ZM372 512H364V514H372V512ZM356 512H348V514H356V512ZM340 512H332V514H340V512ZM324 512H316V514H324V512ZM308 512H300V514H308V512ZM292 512H284V514H292V512ZM276 512H268V514H276V512ZM260 512H252V514H260V512ZM244 512H240V514H244V512Z" fill="#515151" mask="url(#path-40-inside-20_4011_5)"/>
<mask id="path-42-inside-21_4011_5" fill="white">
<path d="M480 513H720V684H480V513Z"/>
</mask>
<path d="M480 513V512.5H479.5V513H480ZM479.5 513V516.886H480.5V513H479.5ZM479.5 524.659V532.432H480.5V524.659H479.5ZM479.5 540.205V547.977H480.5V540.205H479.5ZM479.5 555.75V563.523H480.5V555.75H479.5ZM479.5 571.295V579.068H480.5V571.295H479.5ZM479.5 586.841V594.614H480.5V586.841H479.5ZM479.5 602.386V610.159H480.5V602.386H479.5ZM479.5 617.932V625.705H480.5V617.932H479.5ZM479.5 633.477V641.25H480.5V633.477H479.5ZM479.5 649.023V656.795H480.5V649.023H479.5ZM479.5 664.568V672.341H480.5V664.568H479.5ZM479.5 680.114V684H480.5V680.114H479.5ZM720 512.5H716V513.5H720V512.5ZM708 512.5H700V513.5H708V512.5ZM692 512.5H684V513.5H692V512.5ZM676 512.5H668V513.5H676V512.5ZM660 512.5H652V513.5H660V512.5ZM644 512.5H636V513.5H644V512.5ZM628 512.5H620V513.5H628V512.5ZM612 512.5H604V513.5H612V512.5ZM596 512.5H588V513.5H596V512.5ZM580 512.5H572V513.5H580V512.5ZM564 512.5H556V513.5H564V512.5ZM548 512.5H540V513.5H548V512.5ZM532 512.5H524V513.5H532V512.5ZM516 512.5H508V513.5H516V512.5ZM500 512.5H492V513.5H500V512.5ZM484 512.5H480V513.5H484V512.5ZM480 513V512H479V513H480ZM479 513V516.886H481V513H479ZM479 524.659V532.432H481V524.659H479ZM479 540.205V547.977H481V540.205H479ZM479 555.75V563.523H481V555.75H479ZM479 571.295V579.068H481V571.295H479ZM479 586.841V594.614H481V586.841H479ZM479 602.386V610.159H481V602.386H479ZM479 617.932V625.705H481V617.932H479ZM479 633.477V641.25H481V633.477H479ZM479 649.023V656.795H481V649.023H479ZM479 664.568V672.341H481V664.568H479ZM479 680.114V684H481V680.114H479ZM720 512H716V514H720V512ZM708 512H700V514H708V512ZM692 512H684V514H692V512ZM676 512H668V514H676V512ZM660 512H652V514H660V512ZM644 512H636V514H644V512ZM628 512H620V514H628V512ZM612 512H604V514H612V512ZM596 512H588V514H596V512ZM580 512H572V514H580V512ZM564 512H556V514H564V512ZM548 512H540V514H548V512ZM532 512H524V514H532V512ZM516 512H508V514H516V512ZM500 512H492V514H500V512ZM484 512H480V514H484V512Z" fill="#515151" mask="url(#path-42-inside-21_4011_5)"/>
<mask id="path-44-inside-22_4011_5" fill="white">
<path d="M720 513H960V684H720V513Z"/>
</mask>
<path d="M720 513V512.5H719.5V513H720ZM719.5 513V516.886H720.5V513H719.5ZM719.5 524.659V532.432H720.5V524.659H719.5ZM719.5 540.205V547.977H720.5V540.205H719.5ZM719.5 555.75V563.523H720.5V555.75H719.5ZM719.5 571.295V579.068H720.5V571.295H719.5ZM719.5 586.841V594.614H720.5V586.841H719.5ZM719.5 602.386V610.159H720.5V602.386H719.5ZM719.5 617.932V625.705H720.5V617.932H719.5ZM719.5 633.477V641.25H720.5V633.477H719.5ZM719.5 649.023V656.795H720.5V649.023H719.5ZM719.5 664.568V672.341H720.5V664.568H719.5ZM719.5 680.114V684H720.5V680.114H719.5ZM960 512.5H956V513.5H960V512.5ZM948 512.5H940V513.5H948V512.5ZM932 512.5H924V513.5H932V512.5ZM916 512.5H908V513.5H916V512.5ZM900 512.5H892V513.5H900V512.5ZM884 512.5H876V513.5H884V512.5ZM868 512.5H860V513.5H868V512.5ZM852 512.5H844V513.5H852V512.5ZM836 512.5H828V513.5H836V512.5ZM820 512.5H812V513.5H820V512.5ZM804 512.5H796V513.5H804V512.5ZM788 512.5H780V513.5H788V512.5ZM772 512.5H764V513.5H772V512.5ZM756 512.5H748V513.5H756V512.5ZM740 512.5H732V513.5H740V512.5ZM724 512.5H720V513.5H724V512.5ZM720 513V512H719V513H720ZM719 513V516.886H721V513H719ZM719 524.659V532.432H721V524.659H719ZM719 540.205V547.977H721V540.205H719ZM719 555.75V563.523H721V555.75H719ZM719 571.295V579.068H721V571.295H719ZM719 586.841V594.614H721V586.841H719ZM719 602.386V610.159H721V602.386H719ZM719 617.932V625.705H721V617.932H719ZM719 633.477V641.25H721V633.477H719ZM719 649.023V656.795H721V649.023H719ZM719 664.568V672.341H721V664.568H719ZM719 680.114V684H721V680.114H719ZM960 512H956V514H960V512ZM948 512H940V514H948V512ZM932 512H924V514H932V512ZM916 512H908V514H916V512ZM900 512H892V514H900V512ZM884 512H876V514H884V512ZM868 512H860V514H868V512ZM852 512H844V514H852V512ZM836 512H828V514H836V512ZM820 512H812V514H820V512ZM804 512H796V514H804V512ZM788 512H780V514H788V512ZM772 512H764V514H772V512ZM756 512H748V514H756V512ZM740 512H732V514H740V512ZM724 512H720V514H724V512Z" fill="#515151" mask="url(#path-44-inside-22_4011_5)"/>
<mask id="path-46-inside-23_4011_5" fill="white">
<path d="M960 513H1200V684H960V513Z"/>
</mask>
<path d="M960 513V512.5H959.5V513H960ZM959.5 513V516.886H960.5V513H959.5ZM959.5 524.659V532.432H960.5V524.659H959.5ZM959.5 540.205V547.977H960.5V540.205H959.5ZM959.5 555.75V563.523H960.5V555.75H959.5ZM959.5 571.295V579.068H960.5V571.295H959.5ZM959.5 586.841V594.614H960.5V586.841H959.5ZM959.5 602.386V610.159H960.5V602.386H959.5ZM959.5 617.932V625.705H960.5V617.932H959.5ZM959.5 633.477V641.25H960.5V633.477H959.5ZM959.5 649.023V656.795H960.5V649.023H959.5ZM959.5 664.568V672.341H960.5V664.568H959.5ZM959.5 680.114V684H960.5V680.114H959.5ZM1200 512.5H1196V513.5H1200V512.5ZM1188 512.5H1180V513.5H1188V512.5ZM1172 512.5H1164V513.5H1172V512.5ZM1156 512.5H1148V513.5H1156V512.5ZM1140 512.5H1132V513.5H1140V512.5ZM1124 512.5H1116V513.5H1124V512.5ZM1108 512.5H1100V513.5H1108V512.5ZM1092 512.5H1084V513.5H1092V512.5ZM1076 512.5H1068V513.5H1076V512.5ZM1060 512.5H1052V513.5H1060V512.5ZM1044 512.5H1036V513.5H1044V512.5ZM1028 512.5H1020V513.5H1028V512.5ZM1012 512.5H1004V513.5H1012V512.5ZM996 512.5H988V513.5H996V512.5ZM980 512.5H972V513.5H980V512.5ZM964 512.5H960V513.5H964V512.5ZM960 513V512H959V513H960ZM959 513V516.886H961V513H959ZM959 524.659V532.432H961V524.659H959ZM959 540.205V547.977H961V540.205H959ZM959 555.75V563.523H961V555.75H959ZM959 571.295V579.068H961V571.295H959ZM959 586.841V594.614H961V586.841H959ZM959 602.386V610.159H961V602.386H959ZM959 617.932V625.705H961V617.932H959ZM959 633.477V641.25H961V633.477H959ZM959 649.023V656.795H961V649.023H959ZM959 664.568V672.341H961V664.568H959ZM959 680.114V684H961V680.114H959ZM1200 512H1196V514H1200V512ZM1188 512H1180V514H1188V512ZM1172 512H1164V514H1172V512ZM1156 512H1148V514H1156V512ZM1140 512H1132V514H1140V512ZM1124 512H1116V514H1124V512ZM1108 512H1100V514H1108V512ZM1092 512H1084V514H1092V512ZM1076 512H1068V514H1076V512ZM1060 512H1052V514H1060V512ZM1044 512H1036V514H1044V512ZM1028 512H1020V514H1028V512ZM1012 512H1004V514H1012V512ZM996 512H988V514H996V512ZM980 512H972V514H980V512ZM964 512H960V514H964V512Z" fill="#515151" mask="url(#path-46-inside-23_4011_5)"/>
<mask id="path-48-inside-24_4011_5" fill="white">
<path d="M1200 513H1440V684H1200V513Z"/>
</mask>
<path d="M1200 513V512.5H1199.5V513H1200ZM1199.5 513V516.886H1200.5V513H1199.5ZM1199.5 524.659V532.432H1200.5V524.659H1199.5ZM1199.5 540.205V547.977H1200.5V540.205H1199.5ZM1199.5 555.75V563.523H1200.5V555.75H1199.5ZM1199.5 571.295V579.068H1200.5V571.295H1199.5ZM1199.5 586.841V594.614H1200.5V586.841H1199.5ZM1199.5 602.386V610.159H1200.5V602.386H1199.5ZM1199.5 617.932V625.705H1200.5V617.932H1199.5ZM1199.5 633.477V641.25H1200.5V633.477H1199.5ZM1199.5 649.023V656.795H1200.5V649.023H1199.5ZM1199.5 664.568V672.341H1200.5V664.568H1199.5ZM1199.5 680.114V684H1200.5V680.114H1199.5ZM1440 512.5H1436V513.5H1440V512.5ZM1428 512.5H1420V513.5H1428V512.5ZM1412 512.5H1404V513.5H1412V512.5ZM1396 512.5H1388V513.5H1396V512.5ZM1380 512.5H1372V513.5H1380V512.5ZM1364 512.5H1356V513.5H1364V512.5ZM1348 512.5H1340V513.5H1348V512.5ZM1332 512.5H1324V513.5H1332V512.5ZM1316 512.5H1308V513.5H1316V512.5ZM1300 512.5H1292V513.5H1300V512.5ZM1284 512.5H1276V513.5H1284V512.5ZM1268 512.5H1260V513.5H1268V512.5ZM1252 512.5H1244V513.5H1252V512.5ZM1236 512.5H1228V513.5H1236V512.5ZM1220 512.5H1212V513.5H1220V512.5ZM1204 512.5H1200V513.5H1204V512.5ZM1200 513V512H1199V513H1200ZM1199 513V516.886H1201V513H1199ZM1199 524.659V532.432H1201V524.659H1199ZM1199 540.205V547.977H1201V540.205H1199ZM1199 555.75V563.523H1201V555.75H1199ZM1199 571.295V579.068H1201V571.295H1199ZM1199 586.841V594.614H1201V586.841H1199ZM1199 602.386V610.159H1201V602.386H1199ZM1199 617.932V625.705H1201V617.932H1199ZM1199 633.477V641.25H1201V633.477H1199ZM1199 649.023V656.795H1201V649.023H1199ZM1199 664.568V672.341H1201V664.568H1199ZM1199 680.114V684H1201V680.114H1199ZM1440 512H1436V514H1440V512ZM1428 512H1420V514H1428V512ZM1412 512H1404V514H1412V512ZM1396 512H1388V514H1396V512ZM1380 512H1372V514H1380V512ZM1364 512H1356V514H1364V512ZM1348 512H1340V514H1348V512ZM1332 512H1324V514H1332V512ZM1316 512H1308V514H1316V512ZM1300 512H1292V514H1300V512ZM1284 512H1276V514H1284V512ZM1268 512H1260V514H1268V512ZM1252 512H1244V514H1252V512ZM1236 512H1228V514H1236V512ZM1220 512H1212V514H1220V512ZM1204 512H1200V514H1204V512Z" fill="#515151" mask="url(#path-48-inside-24_4011_5)"/>
<g opacity="0.3" filter="url(#filter0_f_4011_5)">
<ellipse cx="1124.5" cy="150.5" rx="556.5" ry="315.5" transform="rotate(-90 1124.5 150.5)" fill="url(#paint0_linear_4011_5)"/>
</g>
<defs>
<filter id="filter0_f_4011_5" x="309" y="-906" width="1631" height="2113" filterUnits="userSpaceOnUse" color-interpolation-filters="sRGB">
<feFlood flood-opacity="0" result="BackgroundImageFix"/>
<feBlend mode="normal" in="SourceGraphic" in2="BackgroundImageFix" result="shape"/>
<feGaussianBlur stdDeviation="250" result="effect1_foregroundBlur_4011_5"/>
</filter>
<linearGradient id="paint0_linear_4011_5" x1="1440.53" y1="358.747" x2="669.226" y2="-206.999" gradientUnits="userSpaceOnUse">
<stop stop-color="#3E47B7"/>
<stop offset="0.529243" stop-color="#394FB7"/>
<stop offset="1" stop-color="#3D7DDD"/>
</linearGradient>
</defs>
</svg>
