<svg width="56" height="56" viewBox="0 0 56 56" fill="none" xmlns="http://www.w3.org/2000/svg">
<mask id="mask0_2015_12077" style="mask-type:luminance" maskUnits="userSpaceOnUse" x="0" y="4" width="56" height="49">
<path d="M0 4.2002H56V52.5916H0V4.2002Z" fill="white"/>
</mask>
<g mask="url(#mask0_2015_12077)">
<path d="M43.8827 26.7414C43.6735 26.6587 43.4569 26.6149 43.2306 26.61H30.1863V21.1061C30.1741 20.982 30.1741 20.8555 30.1887 20.7314C30.2057 20.6049 30.2325 20.4832 30.2763 20.364C30.3177 20.2448 30.3736 20.1328 30.4393 20.0258C30.5075 19.9187 30.5853 19.8214 30.6753 19.7314C30.7654 19.6413 30.8627 19.5635 30.9698 19.4978C31.0768 19.4296 31.1888 19.3737 31.308 19.3323C31.4272 19.2909 31.5489 19.2618 31.6754 19.2472C31.7995 19.2301 31.926 19.2301 32.0501 19.2423C32.4199 19.2569 32.7849 19.2326 33.1475 19.1693C33.51 19.1085 33.8628 19.0111 34.2059 18.8773C34.549 18.7435 34.875 18.5756 35.1841 18.3761C35.4931 18.1765 35.7778 17.9454 36.0405 17.6875C36.3009 17.4296 36.5345 17.1449 36.7389 16.8407C36.9433 16.5341 37.1136 16.2081 37.2498 15.8674C37.3885 15.5268 37.4907 15.174 37.5564 14.8114C37.6221 14.4513 37.6513 14.0863 37.6416 13.7165V6.34878C37.6367 6.10546 37.5881 5.86944 37.4907 5.64315C37.3958 5.4193 37.2596 5.21978 37.0868 5.04945C36.9116 4.8767 36.7121 4.74531 36.4858 4.65041C36.2571 4.55795 36.0235 4.51172 35.7778 4.51172C35.532 4.51172 35.296 4.55795 35.0697 4.65041C34.8434 4.74531 34.6439 4.8767 34.4687 5.04945C34.2959 5.21978 34.1597 5.4193 34.0624 5.64315C33.9675 5.86944 33.9188 6.10546 33.9139 6.34878V13.6946C33.9261 13.8211 33.9261 13.9452 33.9115 14.0717C33.8945 14.1958 33.8677 14.3199 33.8239 14.4367C33.7825 14.556 33.7266 14.6703 33.6609 14.7749C33.5927 14.882 33.5149 14.9818 33.4249 15.0694C33.3373 15.1594 33.2375 15.2372 33.1304 15.3054C33.0258 15.3711 32.9115 15.427 32.7922 15.4684C32.6754 15.5122 32.5513 15.5414 32.4272 15.556C32.3007 15.5706 32.1766 15.573 32.0501 15.5584C31.6827 15.5463 31.3177 15.5706 30.9552 15.6314C30.5926 15.6923 30.2398 15.7896 29.8967 15.9234C29.5536 16.0572 29.2276 16.2251 28.9186 16.4246C28.6096 16.6266 28.3249 16.8553 28.0621 17.1132C27.7993 17.3736 27.5682 17.6558 27.3638 17.9624C27.1594 18.269 26.9891 18.5926 26.8504 18.9333C26.7141 19.2764 26.6119 19.6267 26.5462 19.9893C26.4805 20.3518 26.4513 20.7168 26.4611 21.0842V26.61H13.4143C12.9909 26.61 12.5699 26.6319 12.1514 26.6733C11.7305 26.7146 11.312 26.7755 10.8983 26.8582C10.4847 26.9409 10.0759 27.0431 9.672 27.1648C9.26809 27.2889 8.86905 27.43 8.47973 27.593C8.09042 27.7536 7.70841 27.9337 7.33613 28.1332C6.96385 28.3327 6.60131 28.5493 6.25093 28.7828C5.90055 29.0189 5.5599 29.2695 5.23385 29.5371C4.9078 29.8048 4.59635 30.0895 4.29707 30.3863C3.99779 30.6856 3.71554 30.9995 3.44789 31.3255C3.18024 31.6516 2.92718 31.9898 2.6936 32.3402C2.46001 32.693 2.24102 33.0531 2.04393 33.4254C1.84441 33.7977 1.66435 34.1797 1.50133 34.569C1.34074 34.9607 1.19718 35.3573 1.07552 35.7613C0.95386 36.1652 0.851667 36.5739 0.768938 36.99C0.68621 37.4037 0.622946 37.8197 0.581582 38.2407C0.540218 38.6616 0.520752 39.0826 0.520752 39.5035C0.520752 39.9269 0.540218 40.3478 0.581582 40.7688C0.622946 41.1873 0.68621 41.6058 0.768938 42.0194C0.851667 42.4331 0.95386 42.8443 1.07552 43.2482C1.19718 43.6521 1.34074 44.0487 1.50133 44.438C1.66435 44.8298 1.84441 45.2094 2.04393 45.5816C2.24102 45.9539 2.46001 46.3165 2.6936 46.6668C2.92718 47.0196 3.18024 47.3579 3.44789 47.6839C3.71554 48.01 3.99779 48.3238 4.29707 48.6207C4.59635 48.92 4.9078 49.2022 5.23385 49.4723C5.5599 49.74 5.90055 49.9906 6.25093 50.2242C6.60131 50.4602 6.96385 50.6767 7.33613 50.8763C7.70841 51.0758 8.09042 51.2558 8.47973 51.4164C8.86905 51.577 9.26809 51.7206 9.672 51.8422C10.0759 51.9663 10.4847 52.0685 10.8983 52.1513C11.312 52.2316 11.7305 52.2948 12.1514 52.3362C12.5699 52.3775 12.9909 52.397 13.4143 52.397C14.3291 52.3994 15.2343 52.3046 16.1297 52.1148C17.0251 51.9274 17.8913 51.6476 18.7284 51.2777C19.5654 50.9079 20.3562 50.4553 21.0983 49.92C21.8404 49.3847 22.5193 48.7788 23.1349 48.1C23.95 47.1729 24.6167 46.151 25.135 45.0293H30.8627C31.3761 46.1437 32.0379 47.1632 32.8458 48.0878C33.4638 48.7667 34.1427 49.375 34.8872 49.9103C35.6293 50.448 36.4201 50.903 37.2596 51.2729C38.0966 51.6452 38.9652 51.925 39.8631 52.1148C40.7585 52.3046 41.6661 52.3994 42.5834 52.397C42.9946 52.4043 43.4058 52.3897 43.8146 52.3581C44.2258 52.324 44.6322 52.2729 45.0385 52.1999C45.4424 52.1269 45.8439 52.0345 46.2405 51.925C46.6371 51.813 47.0264 51.6841 47.4109 51.5357C47.7953 51.3872 48.17 51.2218 48.5374 51.0369C48.9049 50.8519 49.265 50.6524 49.6129 50.4334C49.9609 50.2144 50.2991 49.9784 50.6251 49.7278C50.9487 49.4772 51.2626 49.2095 51.5643 48.9297C51.8636 48.6475 52.1507 48.353 52.4232 48.044C52.6933 47.735 52.9513 47.4138 53.1921 47.0805C53.433 46.7471 53.6569 46.404 53.8661 46.0488C54.0754 45.6936 54.2652 45.331 54.4379 44.9563C54.6107 44.584 54.7664 44.202 54.9027 43.8151C55.0389 43.4258 55.1582 43.0341 55.2555 42.6326C55.3553 42.2336 55.4355 41.8296 55.4939 41.4233C55.5548 41.017 55.5961 40.6082 55.6156 40.197C55.6375 39.7858 55.6375 39.3745 55.618 38.9633C55.601 38.5521 55.5621 38.1433 55.5037 37.737C55.4453 37.3282 55.3699 36.9243 55.2725 36.5253C55.1752 36.1262 55.0608 35.7321 54.9246 35.3427C54.7907 34.9534 54.6375 34.5714 54.4671 34.1967C54.2944 33.8244 54.107 33.4594 53.9002 33.1018C53.6934 32.7465 53.472 32.401 53.2311 32.0677C52.9926 31.7319 52.7371 31.4107 52.467 31.0992C52.197 30.7902 51.9123 30.4934 51.613 30.2111C51.3137 29.9264 51.0023 29.6588 50.6786 29.4057C50.3526 29.1527 50.0168 28.9167 49.6689 28.6953C49.3234 28.4763 48.9657 28.2719 48.5983 28.087C48.2309 27.8996 47.8561 27.7317 47.4741 27.5808C47.0897 27.43 46.7004 27.2986 46.3062 27.1867C45.9096 27.0747 45.5105 26.9798 45.1042 26.9044C44.7003 26.8314 44.2939 26.7755 43.8827 26.7414ZM42.5834 48.7132C41.9289 48.7132 41.2816 48.6475 40.6393 48.5112C39.9994 48.3749 39.3789 48.1754 38.7803 47.9102C38.1818 47.645 37.6173 47.3214 37.0868 46.9369C36.5564 46.5549 36.0697 46.1218 35.6293 45.6352C34.8215 44.7422 34.2132 43.73 33.8044 42.5985L33.7874 42.5693C33.7241 42.3917 33.6341 42.2263 33.5173 42.0754C33.403 41.9245 33.2691 41.7931 33.1134 41.6837C32.9577 41.5742 32.7898 41.4914 32.6073 41.433C32.4272 41.3746 32.2399 41.3454 32.0501 41.3454H24.5948C24.4902 41.3576 24.3855 41.3795 24.2833 41.4087C24.0692 41.3673 23.8527 41.3625 23.6385 41.399C23.422 41.433 23.2176 41.5036 23.0278 41.6107C22.838 41.7177 22.6701 41.854 22.529 42.0194C22.3854 42.1849 22.276 42.3698 22.2005 42.5742C21.7917 43.7202 21.1786 44.7446 20.3586 45.6425C19.9182 46.1267 19.434 46.5598 18.9035 46.9418C18.3731 47.3262 17.8086 47.6474 17.21 47.9126C16.6139 48.1778 15.9934 48.3774 15.3535 48.5112C14.7136 48.6475 14.0688 48.7132 13.4143 48.7132C12.8084 48.7132 12.2098 48.6548 11.6186 48.538C11.0249 48.4187 10.4482 48.2435 9.88856 48.0124C9.33135 47.7812 8.80092 47.499 8.29725 47.1608C7.79357 46.825 7.32883 46.4454 6.90302 46.0172C6.47478 45.5889 6.09277 45.1242 5.75699 44.6205C5.42121 44.1193 5.13652 43.5864 4.90537 43.0292C4.67422 42.4696 4.49903 41.8953 4.38223 41.3016C4.26301 40.7079 4.20461 40.1094 4.20461 39.5035C4.20461 38.9001 4.26301 38.3015 4.38223 37.7078C4.49903 37.1141 4.67422 36.5374 4.90537 35.9802C5.13652 35.4206 5.42121 34.8902 5.75699 34.3865C6.09277 33.8853 6.47478 33.4205 6.90302 32.9923C7.32883 32.564 7.79357 32.182 8.29725 31.8462C8.80092 31.5105 9.33135 31.2282 9.88856 30.9946C10.4482 30.7635 11.0249 30.5907 11.6186 30.4715C12.2098 30.3547 12.8084 30.2939 13.4143 30.2939H42.5834C43.1868 30.2939 43.7878 30.3547 44.3791 30.4715C44.9728 30.5907 45.5495 30.7635 46.1067 30.9946C46.6663 31.2282 47.1967 31.5105 47.7004 31.8462C48.2017 32.182 48.6688 32.564 49.0946 32.9923C49.5229 33.4205 49.9049 33.8853 50.2407 34.3865C50.5765 34.8902 50.8611 35.4206 51.0923 35.9802C51.3234 36.5374 51.4986 37.1141 51.6154 37.7078C51.7347 38.3015 51.7931 38.9001 51.7931 39.5035C51.7931 40.1094 51.7347 40.7079 51.6154 41.3016C51.4986 41.8953 51.3234 42.4696 51.0923 43.0292C50.8611 43.5864 50.5765 44.1193 50.2407 44.6205C49.9049 45.1242 49.5229 45.5889 49.0946 46.0172C48.6688 46.4454 48.2017 46.825 47.7004 47.1608C47.1967 47.499 46.6663 47.7812 46.1067 48.0124C45.5495 48.2435 44.9728 48.4187 44.3791 48.538C43.7878 48.6548 43.1868 48.7132 42.5834 48.7132Z" fill="#EEEEEE"/>
</g>
<path d="M15.6649 33.1357H11.9373V36.8196H8.21204V40.5035H11.9373V44.1873H15.6649V40.5035H19.3926V36.8196H15.6649V33.1357Z" fill="#EEEEEE"/>
<path d="M46.7756 36.2819C46.7756 36.5252 46.727 36.7612 46.6345 36.9851C46.5396 37.2114 46.4034 37.4109 46.2282 37.5836C46.0554 37.7564 45.8534 37.8902 45.6247 37.9827C45.396 38.0751 45.1576 38.1238 44.9118 38.1238C44.6636 38.1238 44.4252 38.0751 44.1989 37.9827C43.9702 37.8902 43.7682 37.7564 43.593 37.5836C43.4178 37.4109 43.284 37.2114 43.1891 36.9851C43.0942 36.7612 43.048 36.5252 43.048 36.2819C43.048 36.0361 43.0942 35.8025 43.1891 35.5762C43.284 35.35 43.4178 35.1504 43.593 34.9777C43.7682 34.8049 43.9702 34.6735 44.1989 34.5786C44.4252 34.4862 44.6636 34.4399 44.9118 34.4399C45.1576 34.4399 45.396 34.4862 45.6247 34.5786C45.8534 34.6735 46.0554 34.8049 46.2282 34.9777C46.4034 35.1504 46.5396 35.35 46.6345 35.5762C46.727 35.8025 46.7756 36.0361 46.7756 36.2819Z" fill="#EEEEEE"/>
<path d="M42.1965 41.3453C42.1965 41.5911 42.1479 41.8247 42.0554 42.051C41.9605 42.2773 41.8242 42.4768 41.6515 42.6495C41.4763 42.8223 41.2743 42.9537 41.0456 43.0486C40.8169 43.141 40.5785 43.1873 40.3327 43.1873C40.0845 43.1873 39.8485 43.141 39.6198 43.0486C39.3911 42.9537 39.1891 42.8223 39.0139 42.6495C38.8387 42.4768 38.7049 42.2773 38.61 42.051C38.5151 41.8247 38.4689 41.5911 38.4689 41.3453C38.4689 41.102 38.5151 40.866 38.61 40.6422C38.7049 40.4159 38.8387 40.2163 39.0139 40.0436C39.1891 39.8708 39.3911 39.737 39.6198 39.6445C39.8485 39.5521 40.0845 39.5034 40.3327 39.5034C40.5785 39.5034 40.8169 39.5521 41.0456 39.6445C41.2743 39.737 41.4763 39.8708 41.6515 40.0436C41.8242 40.2163 41.9605 40.4159 42.0554 40.6422C42.1479 40.866 42.1965 41.102 42.1965 41.3453Z" fill="#EEEEEE"/>
</svg>
