<svg width="48" height="48" viewBox="0 0 48 48" fill="none" xmlns="http://www.w3.org/2000/svg">
<path d="M45 38.9997H42V21.6654C42.0001 21.2502 41.9139 20.8395 41.7471 20.4593C41.5802 20.0791 41.3363 19.7377 41.0306 19.4566L26.0306 5.30412C26.0233 5.29772 26.0164 5.29083 26.01 5.28349C25.4577 4.78124 24.7381 4.50293 23.9916 4.50293C23.2451 4.50293 22.5254 4.78124 21.9731 5.28349L21.9525 5.30412L6.96937 19.4566C6.66375 19.7377 6.41978 20.0791 6.25292 20.4593C6.08606 20.8395 5.99994 21.2502 6 21.6654V38.9997H3C2.60218 38.9997 2.22064 39.1578 1.93934 39.4391C1.65804 39.7204 1.5 40.1019 1.5 40.4997C1.5 40.8976 1.65804 41.2791 1.93934 41.5604C2.22064 41.8417 2.60218 41.9997 3 41.9997H45C45.3978 41.9997 45.7794 41.8417 46.0607 41.5604C46.342 41.2791 46.5 40.8976 46.5 40.4997C46.5 40.1019 46.342 39.7204 46.0607 39.4391C45.7794 39.1578 45.3978 38.9997 45 38.9997ZM9 21.6654L9.02063 21.6466L24 7.49974L38.9812 21.6429L39.0019 21.6616V38.9997H30V29.9997C30 29.2041 29.6839 28.441 29.1213 27.8784C28.5587 27.3158 27.7956 26.9997 27 26.9997H21C20.2044 26.9997 19.4413 27.3158 18.8787 27.8784C18.3161 28.441 18 29.2041 18 29.9997V38.9997H9V21.6654ZM27 38.9997H21V29.9997H27V38.9997Z" fill="#A1A1A1"/>
</svg>
