<svg width="73" height="72" viewBox="0 0 73 72" fill="none" xmlns="http://www.w3.org/2000/svg">
<rect x="0.5" width="72" height="72" rx="16" fill="#1D2439"/>
<path d="M36.5017 31.0002C33.7393 31.0002 31.5016 33.2387 31.5016 36.0002C31.5016 38.7623 33.7402 41.0002 36.5017 41.0002C39.2638 41.0002 41.5017 38.7617 41.5017 36.0002C41.5017 33.238 39.2632 31.0002 36.5017 31.0002ZM36.5017 27.6668C41.1023 27.6668 44.835 31.3953 44.835 36.0002C44.835 40.601 41.1065 44.3335 36.5017 44.3335C31.9008 44.3335 28.1683 40.605 28.1683 36.0002C28.1683 31.3994 31.8968 27.6668 36.5017 27.6668ZM47.335 27.2487C47.335 28.3989 46.4003 29.3321 45.2517 29.3321C44.1015 29.3321 43.1683 28.3975 43.1683 27.2487C43.1683 26.1 44.1028 25.1668 45.2517 25.1668C46.3988 25.1654 47.335 26.1 47.335 27.2487ZM36.5017 22.6668C32.3775 22.6668 31.7053 22.6777 29.7871 22.7632C28.4802 22.8245 27.6042 23.0003 26.7903 23.3163C26.0669 23.5968 25.5451 23.9318 24.9892 24.4877C24.4311 25.0458 24.0967 25.5662 23.8173 26.2899C23.5006 27.1057 23.3249 27.9803 23.2646 29.2854C23.1784 31.1255 23.1683 31.7686 23.1683 36.0002C23.1683 40.1243 23.1792 40.7965 23.2646 42.7145C23.326 44.0208 23.502 44.8982 23.8172 45.7102C24.0985 46.4345 24.4342 46.9575 24.9874 47.5108C25.5477 48.0703 26.0696 48.4058 26.7864 48.6825C27.6103 49.001 28.4858 49.177 29.7869 49.2372C31.627 49.3233 32.27 49.3335 36.5017 49.3335C40.6258 49.3335 41.298 49.3225 43.216 49.2372C44.5195 49.176 45.3975 48.9995 46.2117 48.6845C46.934 48.404 47.4587 48.0672 48.0123 47.5143C48.5727 46.9532 48.9075 46.4325 49.1845 45.714C49.5022 44.8932 49.6785 44.0165 49.7387 42.715C49.8248 40.8748 49.835 40.2317 49.835 36.0002C49.835 31.876 49.824 31.2038 49.7387 29.2858C49.6773 27.9819 49.5008 27.1026 49.1855 26.2888C48.9057 25.5675 48.5695 25.0441 48.014 24.4877C47.455 23.9287 46.936 23.595 46.2118 23.3159C45.3967 22.9994 44.5207 22.8234 43.2163 22.7632C41.3763 22.6769 40.7332 22.6668 36.5017 22.6668ZM36.5017 19.3335C41.0293 19.3335 41.5947 19.3502 43.3725 19.4335C45.146 19.5154 46.3558 19.796 47.4183 20.2085C48.5168 20.6321 49.4447 21.2043 50.371 22.1307C51.296 23.0571 51.8683 23.9877 52.2933 25.0835C52.7043 26.1446 52.985 27.3557 53.0683 29.1293C53.1475 30.9071 53.1683 31.4724 53.1683 36.0002C53.1683 40.528 53.1517 41.0932 53.0683 42.871C52.9863 44.6447 52.7043 45.8543 52.2933 46.9168C51.8697 48.0155 51.296 48.9432 50.371 49.8697C49.4447 50.7947 48.5127 51.3668 47.4183 51.7918C46.3558 52.203 45.146 52.4835 43.3725 52.5668C41.5947 52.646 41.0293 52.6668 36.5017 52.6668C31.9738 52.6668 31.4086 52.6502 29.6308 52.5668C27.8572 52.4848 26.6488 52.203 25.585 51.7918C24.4877 51.3682 23.5586 50.7947 22.6322 49.8697C21.7058 48.9432 21.135 48.0113 20.71 46.9168C20.2975 45.8543 20.0183 44.6447 19.935 42.871C19.8558 41.0932 19.835 40.528 19.835 36.0002C19.835 31.4724 19.8516 30.9071 19.935 29.1293C20.0169 27.3543 20.2975 26.146 20.71 25.0835C21.1336 23.9863 21.7058 23.0571 22.6322 22.1307C23.5586 21.2043 24.4891 20.6335 25.585 20.2085C26.6475 19.796 27.8558 19.5168 29.6308 19.4335C31.4086 19.3543 31.9738 19.3335 36.5017 19.3335Z" fill="#5663DC"/>
</svg>
