<svg width="56" height="56" viewBox="0 0 56 56" fill="none" xmlns="http://www.w3.org/2000/svg">
<mask id="mask0_2131_33" style="mask-type:luminance" maskUnits="userSpaceOnUse" x="3" y="0" width="50" height="56">
<path d="M3.7478 0H52.0237V56H3.7478V0Z" fill="white"/>
</mask>
<g mask="url(#mask0_2131_33)">
<path d="M7.42885 0.0220127C8.15298 -0.117116 7.86467 3.03925 11.4736 6.41856C18.1015 12.3257 28.0064 10.6544 35.1674 15.6564C40.0972 19.3257 39.9379 27.6951 33.2296 30.4509C43.0256 33.9894 41.6477 47.3575 30.7756 47.7481H21.2344C19.4442 47.619 17.7411 48.1906 17.6824 47.0407C17.6456 45.9126 19.8599 46.4473 20.5052 46.3316V32.0333C21.5797 32.4875 23.7555 33.0826 24.1662 33.3106C24.1662 34.0548 24.1662 46.3333 24.1662 46.335C26.5179 46.3266 29.4866 46.4372 31.7461 45.569C35.1439 44.1944 37.1956 37.8465 33.5665 35.3355C27.8338 30.8281 9.66328 31.3996 8.25859 17.0242C8.27535 16.4526 9.01625 16.4526 9.08498 17.0661C11.8458 26.2435 20.7198 26.9258 29.5167 29.2205C32.3429 29.0211 34.2186 25.454 34.2404 22.7854C34.6008 17.3929 27.0594 16.647 19.1676 13.732C14.7071 12.0608 9.91304 9.46095 7.91831 4.33332C7.79092 4.01483 6.39628 -0.0416848 7.42885 0.0220127ZM52.0069 30.6504C51.5292 17.2505 40.2749 6.92982 27.3577 7.63049C48.2739 8.99495 57.1865 33.3843 42.8144 47.4631C27.8723 61.3374 4.88598 50.9581 3.77966 31.2572C3.13095 43.5591 12.2481 53.8915 23.846 55.6851C39.2725 58.0804 52.5685 45.7383 52.0069 30.6504Z" fill="#A1A1A1"/>
</g>
</svg>
