<svg width="56" height="56" viewBox="0 0 56 56" fill="none" xmlns="http://www.w3.org/2000/svg">
<path d="M51.2969 25.0207L41.4313 33.6307L44.3866 46.4494C44.5429 47.1196 44.4983 47.8209 44.2583 48.4658C44.0182 49.1107 43.5934 49.6705 43.0369 50.0753C42.4804 50.4801 41.8169 50.7118 41.1294 50.7416C40.4419 50.7713 39.7609 50.5977 39.1716 50.2425L27.9913 43.4613L16.835 50.2425C16.2456 50.5977 15.5646 50.7713 14.8771 50.7416C14.1896 50.7118 13.5262 50.4801 12.9697 50.0753C12.4132 49.6705 11.9883 49.1107 11.7483 48.4658C11.5082 47.8209 11.4636 47.1196 11.62 46.4494L14.5709 33.6438L4.70312 25.0207C4.18121 24.5705 3.8038 23.9763 3.61825 23.3126C3.43269 22.6488 3.44724 21.945 3.66006 21.2895C3.87289 20.6339 4.27452 20.0558 4.8146 19.6276C5.35467 19.1995 6.00914 18.9403 6.69594 18.8826L19.7028 17.756L24.78 5.64599C25.0451 5.01056 25.4924 4.46777 26.0653 4.08599C26.6383 3.70421 27.3115 3.50049 28 3.50049C28.6885 3.50049 29.3617 3.70421 29.9347 4.08599C30.5076 4.46777 30.9549 5.01056 31.22 5.64599L36.3125 17.756L49.315 18.8826C50.0018 18.9403 50.6563 19.1995 51.1963 19.6276C51.7364 20.0558 52.1381 20.6339 52.3509 21.2895C52.5637 21.945 52.5783 22.6488 52.3927 23.3126C52.2071 23.9763 51.8297 24.5705 51.3078 25.0207H51.2969Z" fill="#5663DC"/>
</svg>
