<svg width="73" height="72" viewBox="0 0 73 72" fill="none" xmlns="http://www.w3.org/2000/svg">
<rect x="0.5" width="72" height="72" rx="16" fill="#1D2439"/>
<path d="M28.5893 46.8242L29.7972 47.5285C31.8151 48.7052 34.1085 49.3335 36.5017 49.3335C43.8655 49.3335 49.835 43.364 49.835 36.0002C49.835 28.6364 43.8655 22.6668 36.5017 22.6668C29.1378 22.6668 23.1683 28.6364 23.1683 36.0002C23.1683 38.394 23.797 40.6882 24.9744 42.7065L25.6784 43.9132L24.5892 47.9158L28.5893 46.8242ZM19.8419 52.6668L22.0952 44.386C20.6582 41.9228 19.835 39.0577 19.835 36.0002C19.835 26.7954 27.2969 19.3335 36.5017 19.3335C45.7063 19.3335 53.1683 26.7954 53.1683 36.0002C53.1683 45.2048 45.7063 52.6668 36.5017 52.6668C33.4452 52.6668 30.5808 51.8442 28.1181 50.408L19.8419 52.6668ZM30.4872 28.1807C30.7103 28.165 30.9342 28.1626 31.1576 28.1735C31.2479 28.1795 31.3377 28.1899 31.4276 28.2003C31.6931 28.2309 31.985 28.3926 32.0831 28.6151C32.5803 29.7424 33.0627 30.8762 33.5303 32.0162C33.6335 32.2679 33.5713 32.594 33.375 32.9097C33.2753 33.0715 33.1188 33.2985 32.9375 33.5307C32.749 33.7718 32.3433 34.2153 32.3433 34.2153C32.3433 34.2153 32.179 34.4123 32.2409 34.6575C32.265 34.7502 32.342 34.8852 32.4118 34.9987C32.4504 35.0615 32.4863 35.1177 32.5096 35.1565C32.9361 35.8687 33.5095 36.5907 34.2098 37.2695C34.4105 37.464 34.6052 37.6625 34.8145 37.8468C35.595 38.535 36.478 39.0973 37.4317 39.5138L37.4402 39.5177C37.581 39.5783 37.6533 39.6115 37.8595 39.699C37.9635 39.743 38.0698 39.781 38.179 39.8098C38.2185 39.8202 38.259 39.826 38.2997 39.8288C38.5692 39.845 38.725 39.6722 38.7915 39.5927C39.9973 38.1318 40.1077 38.0365 40.116 38.0372V38.0398C40.2745 37.8728 40.5237 37.8148 40.746 37.8285C40.8475 37.8347 40.9485 37.8542 41.0408 37.8963C41.9272 38.3007 43.3763 38.9313 43.3763 38.9313L44.3455 39.367C44.5078 39.4453 44.656 39.6298 44.6632 39.8092C44.6675 39.9207 44.6795 40.1007 44.6397 40.43C44.5875 40.8612 44.4563 41.3803 44.326 41.6523C44.2343 41.8432 44.1157 42.0125 43.9777 42.1558C43.7905 42.3502 43.6515 42.4682 43.4265 42.6358C43.2895 42.7378 43.2185 42.7858 43.2185 42.7858C42.987 42.9318 42.8565 43.0048 42.5807 43.1517C42.1517 43.3802 41.6777 43.5115 41.1922 43.5365C40.8827 43.5523 40.574 43.5747 40.2648 43.558C40.2512 43.5572 39.3178 43.4138 39.3178 43.4138C36.948 42.7905 34.7563 41.6228 32.9172 40.0035C32.5412 39.6725 32.1925 39.3143 31.8366 38.96C30.3548 37.4848 29.233 35.8942 28.5528 34.3895C28.2174 33.6475 28.005 32.8528 28.0016 32.0351C27.9955 31.0236 28.3266 30.0388 28.9428 29.2366C29.0643 29.0784 29.1796 28.9144 29.3785 28.7266C29.5891 28.5277 29.7232 28.4209 29.8676 28.347C30.0601 28.2485 30.2715 28.1959 30.4872 28.1807Z" fill="#5663DC"/>
</svg>
